<?xml version="1.0" standalone="no"?>
<!DOCTYPE svg PUBLIC "-//W3C//DTD SVG 1.1//EN" "http://www.w3.org/Graphics/SVG/1.1/DTD/svg11.dtd" >
<svg xmlns="http://www.w3.org/2000/svg" xmlns:xlink="http://www.w3.org/1999/xlink" version="1.1">
<metadata></metadata>
<defs>
<font id="google_sansitalic" horiz-adv-x="1148" >
<font-face units-per-em="2048" ascent="1638" descent="-410" />
<missing-glyph horiz-adv-x="458" />
<glyph horiz-adv-x="0" />
<glyph unicode="&#xd;" horiz-adv-x="0" />
<glyph horiz-adv-x="0" />
<glyph unicode="&#x9;" horiz-adv-x="0" />
<glyph unicode="&#xa;" horiz-adv-x="0" />
<glyph unicode=" "  horiz-adv-x="458" />
<glyph unicode="&#x09;" horiz-adv-x="458" />
<glyph unicode="&#xa0;" horiz-adv-x="458" />
<glyph unicode="!" horiz-adv-x="452" d="M-10 119q0 53 38 91t93 38q53 0 91 -38t38 -91q0 -55 -38 -93t-91 -38q-55 0 -93 37.5t-38 93.5zM106 432l74 537l88 497h174l-88 -497l-114 -537h-134z" />
<glyph unicode="&#x22;" horiz-adv-x="626" d="M137 1014l80 452h158l-80 -452h-158zM430 1014l80 452h158l-80 -452h-158z" />
<glyph unicode="#" horiz-adv-x="1282" d="M39 422l29 143h249l52 289h-256l26 143h254l70 404h151l-69 -404h291l69 404h152l-70 -404h252l-27 -143h-249l-52 -289h258l-28 -143h-254l-74 -422h-151l71 422h-289l-73 -422h-152l72 422h-252zM469 565h291l51 289h-291z" />
<glyph unicode="$" horiz-adv-x="1077" d="M-14 344l164 62q10 -100 69.5 -172t159.5 -93l90 514q-147 66 -230 158t-83 231q0 102 54 186.5t155.5 137.5t238.5 64l31 174h143l-30 -181q117 -23 193.5 -97.5t107.5 -176.5l-166 -66q-43 137 -164 170l-86 -485q156 -74 234.5 -161t78.5 -220q0 -180 -127 -290.5 t-327 -127.5l-31 -176h-144l31 180q-135 23 -238.5 119t-123.5 250zM332 1040q0 -125 168 -211l75 435q-109 -10 -176 -66.5t-67 -157.5zM520 137q109 13 178.5 72t69.5 166q0 76 -42 127t-126 92z" />
<glyph unicode="%" horiz-adv-x="1660" d="M121 1038q0 109 53 200t145.5 143.5t206.5 52.5q131 0 216 -86t85 -220q0 -109 -53 -199.5t-145 -143t-205 -52.5q-131 0 -217 86t-86 219zM201 66l1151 1349l96 -82l-1151 -1347zM262 1051q0 -84 51.5 -137.5t126.5 -53.5q107 0 176.5 74t69.5 182q0 84 -50 137.5 t-126 53.5q-106 0 -177 -74t-71 -182zM823 272q0 109 53.5 200t145.5 143.5t207 52.5q131 0 216 -86t85 -220q0 -109 -53.5 -199.5t-145.5 -143t-205 -52.5q-131 0 -217 86t-86 219zM965 285q0 -84 51 -137.5t127 -53.5q106 0 176 74t70 182q0 84 -50.5 137.5t-126.5 53.5 q-106 0 -176.5 -74t-70.5 -182z" />
<glyph unicode="&#x26;" horiz-adv-x="1259" d="M4 412q0 164 86 293t256 213l-2 4q-68 117 -68 225q0 90 45.5 171t130.5 131t199 50q135 0 216 -68.5t114 -189.5l-170 -70q-41 162 -178 162q-76 0 -127 -52t-51 -134q0 -72 49 -160l360 -612l164 237l115 -84l-201 -286l113 -191l-152 -84l-82 139q-160 -139 -368 -139 q-125 0 -227.5 55.5t-162 156t-59.5 233.5zM166 420q0 -80 39 -147.5t108.5 -107.5t157.5 -40q159 0 274 111l-323 552q-115 -53 -185.5 -147t-70.5 -221z" />
<glyph unicode="'" horiz-adv-x="333" d="M137 1014l80 452h158l-80 -452h-158z" />
<glyph unicode="(" horiz-adv-x="655" d="M106 512q0 313 151 601t398 484l99 -92q-229 -215 -351 -463.5t-122 -560.5q0 -362 190 -669l-123 -91q-102 146 -172 348.5t-70 442.5z" />
<glyph unicode=")" horiz-adv-x="655" d="M-94 -186q229 213 351 462.5t122 561.5q0 362 -191 669l125 90q102 -145 171 -347.5t69 -442.5q0 -313 -149.5 -601t-399.5 -485z" />
<glyph unicode="*" horiz-adv-x="878" d="M170 1169l55 131l213 -81l13 4l43 243h145l-43 -243l10 -4l217 75l45 -133l-239 -88l-6 -14l114 -203l-133 -86l-115 207h-14l-186 -207l-109 92l199 213l-2 17z" />
<glyph unicode="+" horiz-adv-x="1114" d="M68 483l26 144h373l65 372h144l-66 -372h373l-25 -144h-372l-66 -372h-143l65 372h-374z" />
<glyph unicode="," horiz-adv-x="458" d="M-47 -166l137 166q-27 10 -51.5 41t-24.5 78q0 55 38 92t89 37q55 0 94 -37t39 -92q0 -31 -18 -59.5t-61 -82.5l-170 -202z" />
<glyph unicode="-" horiz-adv-x="874" d="M80 563l24 144h652l-25 -144h-651z" />
<glyph unicode="." horiz-adv-x="452" d="M-12 119q0 53 37.5 91t93.5 38q53 0 91 -38t38 -91q0 -55 -38 -93t-91 -38q-56 0 -93.5 37.5t-37.5 93.5z" />
<glyph unicode="/" horiz-adv-x="878" d="M-80 0l866 1466h168l-868 -1466h-166z" />
<glyph unicode="0" horiz-adv-x="1316" d="M78 571q0 225 89 424t245.5 319t349.5 120q221 0 345 -160t124 -443q0 -227 -89 -425.5t-246 -318.5t-351 -120q-142 0 -247 74t-162.5 211t-57.5 319zM256 584q0 -213 81 -332t224 -119q129 0 243 94.5t181.5 252t67.5 337.5q0 211 -80 331t-234 120 q-123 0 -234.5 -97.5t-180 -255t-68.5 -331.5z" />
<glyph unicode="1" horiz-adv-x="778" d="M154 1114l444 287h115l-248 -1401h-172l203 1155l-263 -174z" />
<glyph unicode="2" horiz-adv-x="1075" d="M-35 0l29 174q74 63 294 253.5t310 272.5q84 74 130 122t74.5 104.5t28.5 124.5q0 98 -62 157.5t-173 59.5q-109 0 -180.5 -65.5t-100.5 -145.5l-153 69q45 125 160.5 216.5t295.5 91.5q113 0 203 -47.5t140.5 -128t50.5 -181.5q0 -98 -40 -181t-102.5 -151.5 t-162.5 -156.5l-490 -422h660l-29 -166h-883z" />
<glyph unicode="3" horiz-adv-x="1097" d="M8 317l170 66q14 -117 87 -183.5t188 -66.5q135 0 227 77t92 206q0 113 -71.5 175t-186.5 62h-119l27 162h110q139 0 221.5 66.5t82.5 183.5q0 90 -64.5 146.5t-163.5 56.5q-100 0 -167.5 -55.5t-106.5 -139.5l-154 72q53 127 166 208t283 81q111 0 197.5 -44t137 -122 t50.5 -174q0 -127 -67.5 -214t-180.5 -135v-8q78 -35 131 -114.5t53 -186.5q0 -139 -70.5 -246.5t-189.5 -165t-258 -57.5q-100 0 -192.5 39t-154.5 119t-77 192z" />
<glyph unicode="4" horiz-adv-x="1212" d="M10 301l23 131l817 969h199l-164 -936h180l-29 -164h-180l-55 -301h-172l53 301h-672zM258 465h453l120 680h-8z" />
<glyph unicode="5" horiz-adv-x="1153" d="M20 346l166 62q10 -123 81 -199t188 -76q100 0 183 43t131 120t48 175q0 123 -69.5 197.5t-190.5 74.5q-74 0 -144.5 -33.5t-121.5 -93.5l-164 78l213 707h727l-29 -166h-583l-131 -424l8 -2q123 92 268 92q176 0 284.5 -110.5t108.5 -301.5q0 -141 -69.5 -260.5 t-194.5 -190.5t-283 -71q-100 0 -194 43t-157.5 129t-74.5 207z" />
<glyph unicode="6" horiz-adv-x="1138" d="M35 393q0 129 55 233.5t184 250.5l488 557l123 -97l-424 -485l4 -4q78 41 158 41q106 0 193 -53.5t137.5 -149.5t50.5 -215q0 -150 -73 -264.5t-194 -177t-262 -62.5q-123 0 -223 55.5t-158.5 152.5t-58.5 218zM211 399q0 -76 38 -136t102.5 -95t137.5 -35q95 0 171.5 41 t121.5 114.5t45 168.5q0 123 -78.5 199.5t-201.5 76.5q-96 0 -173 -45t-120 -120.5t-43 -168.5z" />
<glyph unicode="7" horiz-adv-x="1083" d="M43 68l846 1167h-711l33 166h895l-29 -178l-903 -1256z" />
<glyph unicode="8" horiz-adv-x="1130" d="M20 336q0 135 83 240.5t219 158.5l2 8q-139 111 -140 267q0 113 63.5 211t174 155.5t246.5 57.5q170 0 274.5 -94.5t104.5 -249.5q0 -127 -72 -214.5t-174 -134.5l-2 -8q78 -39 129 -120t51 -177q0 -137 -74 -244.5t-197.5 -166t-265.5 -58.5q-123 0 -219 49.5 t-149.5 134.5t-53.5 185zM201 350q0 -96 72.5 -156.5t183.5 -60.5q86 0 164.5 36t129 102.5t50.5 154.5q0 100 -75 163.5t-187 63.5q-86 0 -164 -37.5t-126 -106.5t-48 -159zM362 1018q0 -90 62.5 -146.5t159.5 -56.5q78 0 143.5 33t103 88t37.5 121q0 98 -61.5 154.5 t-159.5 56.5q-119 0 -202 -70t-83 -180z" />
<glyph unicode="9" horiz-adv-x="1136" d="M127 930q0 150 72.5 264.5t193.5 177t262 62.5q123 0 224.5 -55.5t159 -153t57.5 -217.5q0 -129 -55.5 -233.5t-184.5 -250.5l-487 -557l-123 96l424 486l-4 4q-76 -41 -150 -41q-109 0 -198 54.5t-140 149.5t-51 214zM305 944q0 -123 78 -199.5t201 -76.5q96 0 173 45 t120 120.5t43 167.5q0 76 -38 136.5t-102.5 95.5t-138.5 35q-94 0 -171 -41t-121 -115t-44 -168z" />
<glyph unicode=":" horiz-adv-x="452" d="M-12 119q0 53 37.5 91t93.5 38q53 0 91 -38t38 -91q0 -55 -38 -93t-91 -38q-56 0 -93.5 37.5t-37.5 93.5zM131 926q0 55 38 93t93 38q53 0 91 -38t38 -93t-38 -93t-91 -38q-55 0 -93 37.5t-38 93.5z" />
<glyph unicode=";" horiz-adv-x="466" d="M-39 -131l135 164q-27 10 -51.5 40.5t-24.5 78.5q0 55 39 93t91 38q55 0 93 -37t38 -92q0 -31 -19.5 -62t-60.5 -80l-170 -202zM147 926q0 55 38 93t94 38q53 0 91 -38t38 -93t-38 -93t-91 -38q-56 0 -94 37.5t-38 93.5z" />
<glyph unicode="&#x3c;" horiz-adv-x="1017" d="M70 492l20 126l852 377l-29 -168l-647 -274l-2 -8l551 -281l-27 -149z" />
<glyph unicode="=" horiz-adv-x="1138" d="M49 387l27 143h915l-26 -143h-916zM119 776l24 144h916l-25 -144h-915z" />
<glyph unicode="&#x3e;" horiz-adv-x="1017" d="M10 115l29 168l649 274l2 8l-551 281l27 149l719 -377l-21 -126z" />
<glyph unicode="?" horiz-adv-x="997" d="M150 1198q47 133 160.5 217t287.5 84q106 0 192.5 -45t134.5 -121t48 -168q0 -121 -68.5 -211t-199.5 -190q-80 -61 -120 -116.5t-55 -129.5l-14 -86h-176l16 98q18 106 65.5 173t170.5 159q92 68 146.5 133.5t54.5 145.5q0 86 -60.5 139t-159.5 53q-102 0 -172.5 -57 t-99.5 -146zM242 119q0 53 37.5 91t91.5 38q55 0 93 -38t38 -91q0 -55 -38 -93t-93 -38q-54 0 -91.5 37.5t-37.5 93.5z" />
<glyph unicode="@" horiz-adv-x="1769" d="M70 541q0 242 118.5 441.5t327.5 315t467 115.5q193 0 354.5 -85t257 -237.5t95.5 -349.5q0 -143 -45.5 -268t-130 -200.5t-197.5 -75.5q-80 0 -136.5 42t-76.5 113q-53 -74 -135 -114.5t-172 -40.5t-171 46t-129 129t-48 189q0 115 55 224.5t158.5 178t244.5 68.5 q88 0 155.5 -37t100.5 -90h8l17 99h137l-94 -535q-4 -29 -4 -45q0 -41 26.5 -71.5t77.5 -30.5q66 0 115 60t76.5 155.5t27.5 197.5q0 162 -74.5 284t-208.5 189.5t-311 67.5q-209 0 -377.5 -95.5t-265 -261t-96.5 -370.5q0 -166 76 -298t206 -207t285 -75q156 0 279 58 l45 -127q-150 -68 -338 -68q-199 0 -359.5 95.5t-250.5 258t-90 355.5zM604 567q0 -109 64.5 -168t165.5 -59q79 0 147 42t106.5 113.5t38.5 157.5q0 106 -62.5 171t-166.5 65q-86 0 -152.5 -43t-103.5 -117t-37 -162z" />
<glyph unicode="A" horiz-adv-x="1370" d="M-102 0l813 1466h196l297 -1466h-184l-74 403h-633l-221 -403h-194zM399 567h514l-102 529l-29 157h-8z" />
<glyph unicode="B" horiz-adv-x="1239" d="M29 0l260 1466h499q117 0 204 -48t133 -129t46 -177q0 -129 -75.5 -220t-186.5 -130l-2 -8q197 -100 197 -308q0 -123 -68.5 -225t-187.5 -161.5t-264 -59.5h-555zM231 166h390q76 0 146.5 32.5t114.5 95t44 148.5q0 102 -66.5 164t-179.5 62h-361zM348 831h354 q125 0 209 69t84 185q0 92 -58 153.5t-163 61.5h-342z" />
<glyph unicode="C" horiz-adv-x="1515" d="M76 627q0 225 115.5 426.5t318.5 323.5t451 122q166 0 299 -68.5t202 -177.5l-139 -114q-68 100 -160 147t-221 47q-188 0 -347 -98t-251 -259t-92 -341q0 -150 63.5 -263.5t175 -176t248.5 -62.5q150 0 264.5 55.5t227.5 165.5l110 -125q-137 -135 -283.5 -198.5 t-338.5 -63.5q-187 0 -333 82t-228 231.5t-82 346.5z" />
<glyph unicode="D" horiz-adv-x="1439" d="M29 0l260 1466h442q199 0 340 -81.5t214 -224t73 -324.5q0 -223 -104.5 -415t-301 -306.5t-460.5 -114.5h-463zM231 166h271q190 0 346 87t244 237.5t88 332.5q0 231 -126 354t-354 123h-268z" />
<glyph unicode="E" horiz-adv-x="1126" d="M29 0l260 1466h848l-29 -166h-676l-86 -485h610l-28 -164h-611l-86 -485h676l-30 -166h-848z" />
<glyph unicode="F" horiz-adv-x="1085" d="M29 0l260 1466h848l-29 -166h-676l-88 -501h610l-28 -164h-611l-114 -635h-172z" />
<glyph unicode="G" horiz-adv-x="1667" d="M78 641q0 231 113.5 428t317.5 313.5t464 116.5q160 0 297 -60.5t207 -164.5l-142 -119q-53 82 -159.5 130t-231.5 48q-190 0 -348 -90t-249 -246.5t-91 -347.5q0 -160 67.5 -276.5t181 -178t251.5 -61.5q270 0 448 184q113 115 160 301h-533l29 162h707q0 -41 -11 -106 q-49 -289 -227 -469q-225 -238 -598 -238q-174 0 -323.5 82t-239.5 235.5t-90 356.5z" />
<glyph unicode="H" horiz-adv-x="1429" d="M29 0l260 1466h172l-113 -635h756l115 635h172l-261 -1466h-172l117 668h-756l-118 -668h-172z" />
<glyph unicode="I" horiz-adv-x="499" d="M29 0l260 1466h172l-260 -1466h-172z" />
<glyph unicode="J" horiz-adv-x="1087" d="M-14 307l168 66q12 -125 79.5 -182.5t169.5 -57.5q123 0 212.5 86t111.5 219l180 1028h172l-178 -1015q-41 -240 -180 -362t-338 -122q-162 0 -270.5 92.5t-126.5 247.5z" />
<glyph unicode="K" horiz-adv-x="1282" d="M29 0l260 1466h172l-133 -766h8l788 766h230l-2 -8l-654 -627l437 -823l-2 -8h-203l-369 698l-282 -268l-78 -430h-172z" />
<glyph unicode="L" horiz-adv-x="1040" d="M29 0l260 1466h172l-230 -1300h643l-30 -166h-815z" />
<glyph unicode="M" horiz-adv-x="1773" d="M29 0l260 1466h243l259 -1202h8l678 1202h258l-260 -1466h-172l163 932l60 278h-8l-687 -1210h-145l-270 1210h-8l-41 -278l-166 -932h-172z" />
<glyph unicode="N" horiz-adv-x="1447" d="M29 0l260 1466h198l543 -1167h8l43 283l156 884h174l-260 -1466h-166l-567 1223h-8l-41 -283l-168 -940h-172z" />
<glyph unicode="O" horiz-adv-x="1689" d="M76 633q0 225 110.5 424.5t308 320.5t447.5 121q184 0 336 -85t240 -236.5t88 -343.5q0 -225 -110 -425t-307.5 -321t-445.5 -121q-186 0 -338.5 85t-240.5 236.5t-88 344.5zM256 647q0 -156 66.5 -272.5t181 -179t256.5 -62.5q182 0 335.5 97.5t242.5 256t89 332.5 q0 156 -66.5 272.5t-182 179t-256.5 62.5q-182 0 -335 -97t-242 -256t-89 -333z" />
<glyph unicode="P" horiz-adv-x="1179" d="M29 0l260 1466h481q115 0 205 -48t141 -134t51 -197q0 -150 -68.5 -261t-191.5 -169.5t-278 -58.5h-320l-108 -598h-172zM338 764h321q145 0 237.5 77t92.5 224q0 109 -66.5 172t-166.5 63h-324z" />
<glyph unicode="Q" horiz-adv-x="1689" d="M76 633q0 225 110.5 424.5t308 320.5t447.5 121q184 0 336 -85t240 -236.5t88 -343.5q0 -211 -96.5 -398.5t-266.5 -308.5l68 -141l-154 -78l-65 133q-166 -74 -349 -74q-186 0 -338.5 85t-240.5 236.5t-88 344.5zM256 647q0 -156 66.5 -272.5t181 -179t256.5 -62.5 q129 0 256 55l-133 275l155 82l129 -260q119 98 189.5 240.5t70.5 293.5q0 156 -66.5 272.5t-182 179t-256.5 62.5q-182 0 -335 -97t-242 -256t-89 -333z" />
<glyph unicode="R" horiz-adv-x="1200" d="M29 0l260 1466h481q115 0 205 -49t141 -137t51 -203q0 -180 -117.5 -305t-310.5 -162l-6 -6l305 -596l-2 -8h-194l-299 598h-234l-108 -598h-172zM338 760h311q145 0 242.5 84t97.5 229q0 98 -66.5 162.5t-181.5 64.5h-309z" />
<glyph unicode="S" horiz-adv-x="1155" d="M6 365l166 67q16 -133 98 -216t219 -83q84 0 161 36t125 101.5t48 151.5q0 92 -62.5 152.5t-201.5 111.5l-88 33q-129 49 -211 137t-82 227q0 119 66.5 213.5t178.5 148.5t243 54q133 0 225 -48t140 -117.5t59 -137.5l-168 -61q-14 78 -78 138t-191 60q-125 0 -210 -64.5 t-85 -170.5q0 -84 57.5 -139.5t170.5 -98.5l88 -33q330 -123 330 -381q0 -143 -70 -251.5t-191.5 -168t-273.5 -59.5q-180 0 -307 105.5t-156 292.5z" />
<glyph unicode="T" horiz-adv-x="1101" d="M147 1300l31 166h996l-31 -166h-410l-231 -1300h-172l229 1300h-412z" />
<glyph unicode="U" horiz-adv-x="1353" d="M96 408q0 90 17 192l153 866h172l-159 -907q-12 -72 -13 -125q0 -139 78 -220t229 -81q174 0 288 111.5t147 290.5l163 931h172l-167 -954q-47 -258 -209 -401.5t-422 -143.5q-123 0 -225.5 54.5t-163 153.5t-60.5 233z" />
<glyph unicode="V" horiz-adv-x="1292" d="M156 1466h186l174 -1063l25 -145h8l78 145l565 1063h197l-797 -1466h-178z" />
<glyph unicode="W" horiz-adv-x="1933" d="M162 1466h186l78 -1077l8 -100h8l47 100l517 1077h180l125 -1077l12 -100h8l41 100l457 1077h194l-647 -1466h-180l-133 1061l-14 115h-9l-53 -115l-508 -1061h-182z" />
<glyph unicode="X" horiz-adv-x="1288" d="M-86 0l633 768l-346 698h205l266 -567h8l467 567h213l-594 -712l375 -754h-205l-299 612h-8l-510 -612h-205z" />
<glyph unicode="Y" horiz-adv-x="1218" d="M156 1466h198l267 -614h8l477 614h209l-629 -788l-121 -678h-172l119 678z" />
<glyph unicode="Z" horiz-adv-x="1169" d="M-55 0l32 182l981 1118h-751l29 166h958l-33 -182l-983 -1118h795l-31 -166h-997z" />
<glyph unicode="[" horiz-adv-x="620" d="M-20 -254l327 1876h412l-25 -143h-256l-278 -1590h254l-25 -143h-409z" />
<glyph unicode="\" horiz-adv-x="880" d="M186 1466h158l348 -1466h-157z" />
<glyph unicode="]" horiz-adv-x="620" d="M-100 -254l24 143h252l279 1590h-252l24 143h412l-330 -1876h-409z" />
<glyph unicode="^" horiz-adv-x="950" d="M43 840l494 626h135l272 -626h-172l-188 458h-9l-342 -458h-190z" />
<glyph unicode="_" horiz-adv-x="974" d="M-168 -442l27 143h972l-26 -143h-973z" />
<glyph unicode="`" horiz-adv-x="813" d="M332 1466h186l60 -260h-148z" />
<glyph unicode="a" horiz-adv-x="1081" d="M49 287q0 174 128 277.5t351 103.5q82 0 161 -19.5t140 -52.5l13 61q6 35 6 60q0 92 -73 148.5t-183 56.5q-170 0 -281 -140l-135 97q74 94 186.5 146t247.5 52q188 0 296 -91t108 -245q0 -43 -10 -104l-115 -637h-166l27 147h-9q-55 -82 -145 -131t-205 -49 q-92 0 -171 42t-125 115t-46 163zM227 299q0 -82 58.5 -130t144.5 -48q141 0 245.5 93t129.5 239q-63 37 -127 55t-160 18q-129 0 -210 -60t-81 -167z" />
<glyph unicode="b" horiz-adv-x="1230" d="M-2 0l258 1466h172l-76 -432l-35 -145h9q49 80 142 134t218 54t225.5 -62.5t156.5 -173t56 -251.5q0 -166 -74.5 -309.5t-208.5 -228.5t-302 -85q-115 0 -206 54.5t-136 134.5h-9l-28 -156h-162zM244 453q0 -100 39 -174t105.5 -114t146.5 -40q114 0 208.5 58.5 t148.5 162t54 232.5q0 150 -86 246t-221 96q-109 0 -200 -66t-143 -173.5t-52 -227.5z" />
<glyph unicode="c" horiz-adv-x="1114" d="M27 449q0 174 77.5 317t216 227t314.5 84q168 0 274.5 -84t141.5 -205l-162 -63q-29 92 -99.5 143.5t-175.5 51.5q-113 0 -207 -59.5t-149 -164t-55 -235.5q0 -143 83 -239.5t218 -96.5q106 0 191 52t134 147l140 -68q-82 -147 -200 -218t-288 -71q-133 0 -237.5 65.5 t-160.5 176t-56 240.5z" />
<glyph unicode="d" horiz-adv-x="1232" d="M25 440q0 174 77.5 319.5t215 231.5t309.5 86q117 0 205 -55t126 -135h9l18 145l76 434h174l-260 -1466h-166l29 154h-9q-59 -86 -154 -136.5t-224 -50.5q-121 0 -218.5 58.5t-152.5 166t-55 248.5zM201 457q0 -152 83 -242t212 -90q114 0 209.5 63.5t149.5 171t54 236.5 q0 147 -84 235.5t-211 88.5q-117 0 -211 -60.5t-148 -167t-54 -235.5z" />
<glyph unicode="e" horiz-adv-x="1155" d="M27 446q0 164 73.5 309.5t208.5 233.5t309 88q135 0 233.5 -59.5t150 -159.5t51.5 -221q0 -88 -19 -148h-827q-4 -41 -4 -65q0 -90 42 -158.5t111.5 -104.5t147.5 -36q121 0 205 50t141 144l133 -75q-78 -135 -203 -206t-286 -71q-142 0 -248.5 64.5t-162.5 174 t-56 240.5zM236 633h643v29q0 68 -33 127t-96.5 95t-151.5 36q-131 0 -228.5 -82t-133.5 -205z" />
<glyph unicode="f" horiz-adv-x="778" d="M80 887l29 157h192l21 113q25 152 132 239t257 87q92 0 151 -25l-31 -170q-61 33 -141 33q-70 0 -127 -47t-71 -135l-17 -95h268l-28 -157h-269l-155 -887h-174l157 887h-194z" />
<glyph unicode="g" horiz-adv-x="1222" d="M2 -182l168 67q23 -90 92.5 -146t181.5 -56q162 0 266.5 96t133.5 264l20 115h-8q-59 -86 -149.5 -132t-221.5 -46q-117 0 -213 58t-151 165.5t-55 245.5q0 166 73.5 310t207.5 231t308 87q119 0 207 -51t125 -131h8l27 149h166l-178 -1011q-45 -258 -201 -383t-389 -125 q-119 0 -208 43t-142.5 109.5t-67.5 140.5zM240 457q0 -150 79.5 -235t202.5 -85q119 0 214 63.5t148.5 169t53.5 226.5q0 147 -80 235.5t-205 88.5q-123 0 -217 -61.5t-145 -167t-51 -234.5z" />
<glyph unicode="h" d="M-2 0l258 1466h172l-76 -432l-35 -143h9q59 84 151 135t209 51q160 0 247 -85t87 -224q0 -59 -12 -139l-113 -629h-172l111 629q10 61 10 100q0 88 -60.5 139.5t-158.5 51.5q-127 0 -226.5 -98.5t-126.5 -254.5l-102 -567h-172z" />
<glyph unicode="i" horiz-adv-x="462" d="M10 0l183 1044h174l-185 -1044h-172zM213 1360q0 53 37 89t88 36t88 -37t37 -88t-37 -88t-88 -37t-88 37t-37 88z" />
<glyph unicode="j" horiz-adv-x="471" d="M-266 -446l28 161q14 -8 39 -14t45 -6q63 0 97 38t47 107l213 1204h174l-213 -1212q-29 -162 -113 -228.5t-217 -66.5q-51 1 -100 17zM219 1350q0 53 37 89t88 36q53 0 89 -36t36 -89q0 -51 -36 -88t-89 -37q-51 0 -88 36.5t-37 88.5z" />
<glyph unicode="k" horiz-adv-x="1038" d="M0 0l258 1466h174l-160 -909l562 487h237l-2 -8l-487 -413l311 -615l-2 -8h-203l-246 504l-211 -180l-57 -324h-174z" />
<glyph unicode="l" horiz-adv-x="434" d="M-2 0l258 1466h172l-258 -1466h-172z" />
<glyph unicode="m" horiz-adv-x="1794" d="M-2 0l182 1044h166l-27 -153h9q55 88 141 137t203 49t191.5 -53t103.5 -150q57 94 157.5 148.5t225.5 54.5q152 0 235.5 -78.5t83.5 -207.5q0 -55 -18 -158l-111 -633h-174l113 643q10 61 10 100q0 82 -51.5 129.5t-147.5 47.5q-123 0 -215 -99.5t-119 -247.5l-102 -573 h-172l113 641q10 61 10 98q0 84 -53.5 132.5t-145.5 48.5q-125 0 -217 -101.5t-117 -249.5l-102 -569h-172z" />
<glyph unicode="n" d="M-2 0l182 1044h166l-27 -153h9q55 84 146 135t210 51q156 0 246 -85t90 -224q0 -72 -14 -145l-111 -623h-172l111 627q12 59 12 102q0 90 -60.5 140.5t-160.5 50.5q-127 0 -225.5 -94.5t-125.5 -237.5l-104 -588h-172z" />
<glyph unicode="o" horiz-adv-x="1198" d="M27 465q0 168 76.5 308t216 222t319.5 82q139 0 247.5 -65.5t169 -179t60.5 -252.5q0 -170 -76.5 -310.5t-216 -221.5t-317.5 -81q-139 0 -249 65.5t-170 179.5t-60 253zM203 475q0 -100 41 -180t113.5 -125t166.5 -45q121 0 215.5 60.5t147.5 162t53 221.5q0 98 -41 178 t-113.5 126.5t-167.5 46.5q-119 0 -214 -60.5t-148 -163t-53 -221.5z" />
<glyph unicode="p" horiz-adv-x="1222" d="M-72 -442l262 1486h166l-26 -153h8q59 86 154.5 136t224.5 50q121 0 218 -58t152.5 -166t55.5 -251q0 -172 -78 -318.5t-216 -231.5t-310 -85q-115 0 -204 54.5t-128 134.5h-8l-17 -146l-82 -452h-172zM256 444q0 -145 85 -232t210 -87q119 0 213 60.5t147.5 167 t53.5 235.5q0 154 -82 243t-213 89q-115 0 -210 -63.5t-149.5 -172.5t-54.5 -240z" />
<glyph unicode="q" horiz-adv-x="1224" d="M27 455q0 164 75.5 307t209.5 229t302 86q119 0 208 -53t134 -135h9l28 155h164l-262 -1488h-174l82 454l33 144h-9q-47 -84 -138 -135.5t-220 -51.5q-127 0 -227.5 61.5t-157.5 173t-57 253.5zM205 467q0 -152 86 -247t225 -95q109 0 199 65.5t142 173t52 228.5 q0 150 -85 239t-212 89q-113 0 -206 -58.5t-147 -162t-54 -232.5z" />
<glyph unicode="r" horiz-adv-x="768" d="M-2 0l182 1044h166l-27 -155h9q41 86 136 136t198 50q76 0 120 -20l-32 -191q-53 35 -142 35q-76 0 -147.5 -43t-122.5 -115.5t-66 -156.5l-102 -584h-172z" />
<glyph unicode="s" horiz-adv-x="958" d="M-23 254l164 65q20 -94 96 -146t175 -52q98 0 162.5 47t64.5 119q0 63 -43 105t-133 65l-105 26q-125 33 -197.5 102.5t-72.5 176.5q0 88 52.5 160.5t146.5 113.5t211 41q139 0 244.5 -65.5t140.5 -171.5l-166 -64q-25 68 -84.5 107t-145.5 39q-98 0 -158.5 -41 t-60.5 -107q0 -45 40 -84t112 -57l135 -35q123 -31 193.5 -106.5t70.5 -184.5q0 -154 -112.5 -247t-313.5 -93q-166 0 -273.5 80t-142.5 207z" />
<glyph unicode="t" horiz-adv-x="749" d="M80 887l29 157h182l53 295h172l-51 -295h256l-29 -157h-256l-98 -555q-8 -47 -8 -80q0 -51 31.5 -79t84.5 -28q66 0 125 35l-28 -170q-64 -26 -142 -26h-6q-108 0 -175.5 62.5t-67.5 164.5q0 47 10 100l102 576h-184z" />
<glyph unicode="u" d="M49 276q0 68 14 146l111 622h174l-112 -626q-10 -68 -11 -103q0 -90 60.5 -140t158.5 -50q127 0 225.5 93t125.5 237l104 589h174l-184 -1044h-164l27 152h-9q-55 -84 -147 -134.5t-211 -50.5q-156 0 -246 85t-90 224z" />
<glyph unicode="v" horiz-adv-x="1052" d="M66 1044h184l174 -839h4l473 839h189l-611 -1044h-178z" />
<glyph unicode="w" horiz-adv-x="1593" d="M66 1044h176l98 -825h2l410 825h184l121 -823h2l389 823h182l-520 -1044h-182l-119 834l-416 -834h-176z" />
<glyph unicode="x" horiz-adv-x="995" d="M-113 0l461 535l-264 509h195l194 -385l324 385h211l-455 -520l276 -524h-194l-203 401l-334 -401h-211z" />
<glyph unicode="y" horiz-adv-x="1056" d="M33 -442l323 510l-260 976h185l192 -776h4l455 776h194l-911 -1486h-182z" />
<glyph unicode="z" horiz-adv-x="985" d="M-59 0l24 150l742 737h-594l28 157h811l-24 -149l-742 -737h617l-29 -158h-833z" />
<glyph unicode="{" horiz-adv-x="643" d="M33 612l24 144q68 0 117 43t66 131l63 358q29 166 122 250t263 84h51l-24 -143h-45q-84 0 -138.5 -51.5t-70.5 -145.5l-66 -358q-18 -100 -60 -155.5t-118 -80.5l-2 -8q53 -20 80 -59t27 -103q0 -35 -9 -74l-65 -360q-6 -37 -6 -53q0 -68 42 -105t107 -37h43l-24 -143 h-45q-125 0 -203 70.5t-78 183.5q0 43 6 80l64 360q4 29 4 43q0 63 -33 96t-92 33z" />
<glyph unicode="|" horiz-adv-x="446" d="M-20 -246l329 1868h158l-330 -1868h-157z" />
<glyph unicode="}" horiz-adv-x="641" d="M-102 -254l24 143h45q84 0 138.5 51.5t70.5 145.5l66 358q18 100 60 155.5t118 80.5l2 8q-53 20 -80 59t-27 103q0 35 9 74l65 360q6 37 6 53q0 68 -41 105t-108 37h-43l24 143h45q125 0 203 -70.5t78 -183.5q0 -43 -6 -80l-64 -360q-4 -29 -4 -43q0 -63 33 -96t92 -33 l-24 -144q-68 0 -117 -43t-66 -131l-63 -358q-29 -166 -122 -250t-261 -84h-53z" />
<glyph unicode="~" horiz-adv-x="1073" d="M16 510q14 127 87 197.5t196 70.5q55 0 108.5 -18.5t127.5 -54.5q74 -35 115.5 -50.5t84.5 -15.5q51 0 86 34t45 79h138q-16 -127 -88 -198t-195 -71q-55 0 -108.5 18.5t-127.5 55.5q-74 35 -115.5 50.5t-84.5 15.5q-51 0 -86 -34t-47 -79h-136z" />
<glyph unicode="&#xa1;" horiz-adv-x="452" d="M-43 -442l88 497l119 568h133l-78 -568l-90 -497h-172zM156 946q0 55 37.5 93t91.5 38q55 0 93 -38t38 -93t-38 -93t-93 -38q-54 0 -91.5 38t-37.5 93z" />
<glyph unicode="&#xa2;" horiz-adv-x="1064" d="M47 635q0 158 69.5 289t192.5 210.5t277 92.5l30 174h144l-33 -178q127 -23 206 -98.5t109 -178.5l-163 -65q-47 154 -179 184l-129 -735q82 16 139.5 63t106.5 129l144 -67q-84 -135 -181.5 -203t-236.5 -80l-31 -172h-143l30 176q-158 27 -255 155t-97 304zM221 647 q0 -117 55.5 -202t149.5 -113l131 739q-147 -23 -241.5 -142.5t-94.5 -281.5z" />
<glyph unicode="&#xa3;" horiz-adv-x="1050" d="M-63 0l26 150q113 53 187.5 145t74.5 197q0 12 -2 18h-196l24 145h142q-6 23 -23 68q-29 82 -44 140.5t-15 125.5q0 119 58 221.5t166.5 163t252.5 60.5q158 0 248 -81t125 -208l-170 -66q-47 188 -230 189q-119 0 -195.5 -81t-76.5 -200q0 -55 14 -108.5t45 -137.5 q6 -14 14.5 -35.5t16.5 -50.5h287l-25 -145h-244l2 -10q-4 -94 -53 -177t-131 -149l8 -8h375q76 0 122 30.5t81 90.5l131 -60q-55 -115 -141 -171t-222 -56h-632z" />
<glyph unicode="&#xa4;" horiz-adv-x="1214" d="M121 293l123 119q-78 117 -78 254q0 141 78 254l-123 120l102 103l121 -117q115 88 262 88q150 0 264 -88l121 117l101 -103l-121 -118q78 -117 78 -256q0 -137 -78 -254l121 -119l-101 -103l-121 117q-117 -90 -264 -90q-145 0 -262 90l-121 -117zM326 666 q0 -80 37.5 -148.5t102 -108.5t140.5 -40q78 0 142.5 40t102.5 108.5t38 148.5t-38 148.5t-102.5 108.5t-142.5 40q-76 0 -140.5 -40t-102 -109t-37.5 -148z" />
<glyph unicode="&#xa5;" horiz-adv-x="1157" d="M78 346l24 143h351l30 175h-350l27 143h256l-275 594h191l203 -475l51 -117h8l455 592h200l-477 -594h250l-25 -143h-342l-30 -175h342l-27 -143h-342l-59 -346h-174l61 346h-348z" />
<glyph unicode="&#xa6;" horiz-adv-x="446" d="M-14 -246l149 844h158l-150 -844h-157zM166 770l137 778h158l-137 -778h-158z" />
<glyph unicode="&#xa7;" horiz-adv-x="1081" d="M-55 -86l164 66q16 -129 88.5 -209t201.5 -80q123 0 208 65.5t85 180.5q0 96 -64.5 153t-203.5 103l-8 2q-154 49 -242 138t-88 210q0 102 69.5 189t174.5 134q-59 47 -95 114t-36 144q0 102 55 188.5t157.5 136.5t235.5 50q172 0 272.5 -86t129.5 -211l-172 -65 q-10 76 -72 136t-174 60q-98 0 -175 -52t-77 -136q0 -76 61.5 -129t190.5 -103l8 -2q164 -63 253 -153t89 -223q0 -111 -56.5 -194t-152.5 -138q98 -92 98 -244q0 -119 -61 -218t-173 -157.5t-257 -58.5q-111 0 -206 46t-156.5 134t-71.5 209zM268 555q0 -72 57.5 -120 t170.5 -85q86 -31 145 -59q68 35 114 91t46 124q0 84 -68.5 150.5t-197.5 109.5l-39 12q-92 -27 -160 -86t-68 -137z" />
<glyph unicode="&#xa8;" horiz-adv-x="802" d="M227 1350q0 47 33 78.5t78 31.5q47 0 79 -31.5t32 -78.5q0 -45 -32 -78t-79 -33q-43 0 -77 34t-34 77zM565 1350q0 47 33 78.5t76 31.5q47 0 78.5 -31.5t31.5 -78.5q0 -45 -31.5 -78t-78.5 -33q-43 0 -76 34t-33 77z" />
<glyph unicode="&#xa9;" horiz-adv-x="1085" d="M72 1028q0 127 63.5 235.5t172 172t235.5 63.5t235.5 -63.5t172 -172t63.5 -235.5t-63.5 -235.5t-172 -172t-235.5 -63.5t-235.5 63.5t-172 172t-63.5 235.5zM166 1028q0 -100 51 -187t138 -138.5t188 -51.5q102 0 189 51.5t138.5 138.5t51.5 187q0 102 -51.5 189.5 t-138.5 137.5t-189 50q-100 0 -187.5 -50t-138.5 -137.5t-51 -189.5zM309 1028q0 102 70 173t172 71q57 0 98 -20.5t80 -59.5l-63 -57q-23 27 -48.5 39t-66.5 12q-61 0 -106.5 -46t-45.5 -112t45 -112t107 -46q76 0 125 66l67 -53q-74 -98 -192 -99q-102 0 -172 72t-70 172z " />
<glyph unicode="&#xaa;" horiz-adv-x="970" d="M98 827q0 100 60.5 176t159 116t208.5 40q143 0 262 -61l5 32q4 37 4 39q0 84 -57.5 133.5t-145.5 49.5q-82 0 -142.5 -27t-105.5 -86l-127 74q49 82 147.5 134t239.5 52q150 0 250 -84t100 -223q0 -37 -6 -74l-94 -532h-160l25 133h-8q-53 -72 -133 -117t-172 -45 q-138 0 -224 74t-86 196zM270 842q0 -68 52.5 -105t117.5 -37q117 0 211 76t115 191q-53 33 -107.5 49t-128.5 16q-102 0 -181 -48t-79 -142z" />
<glyph unicode="&#xab;" horiz-adv-x="1122" d="M31 555l487 444l90 -100l-387 -354l254 -342l-112 -92zM440 555l487 444l90 -100l-387 -354l254 -342l-112 -92z" />
<glyph unicode="&#xac;" horiz-adv-x="1136" d="M70 639l24 143h881l-101 -567h-137l76 424h-743z" />
<glyph unicode="&#xad;" horiz-adv-x="874" d="M80 563l24 144h652l-25 -144h-651z" />
<glyph unicode="&#xae;" horiz-adv-x="1085" d="M72 1028q0 127 63.5 235.5t172 172t235.5 63.5t235.5 -63.5t172 -172t63.5 -235.5t-63.5 -235.5t-172 -172t-235.5 -63.5t-235.5 63.5t-172 172t-63.5 235.5zM166 1028q0 -100 51 -187t138 -138.5t188 -51.5q102 0 189 51.5t138.5 138.5t51.5 187q0 102 -51.5 189.5 t-138.5 137.5t-189 50q-100 0 -187.5 -50t-138.5 -137.5t-51 -189.5zM387 797v463h195q59 0 104 -43t45 -105q0 -47 -29.5 -84t-72.5 -49l-4 -4l123 -174v-4h-103l-115 174h-53v-174h-90zM477 1053h96q27 0 47.5 16t20.5 43q0 25 -18.5 43.5t-47.5 18.5h-98v-121z" />
<glyph unicode="&#xaf;" horiz-adv-x="817" d="M221 1282l25 135h565l-25 -135h-565z" />
<glyph unicode="&#xb0;" horiz-adv-x="661" d="M135 1139q0 129 85 212t214 83q100 0 171 -67t71 -167q0 -129 -84 -212t-215 -83q-98 0 -170 66.5t-72 167.5zM266 1153q0 -55 35 -91t88 -36q64 0 110 46t46 114q0 55 -34 91t-87 36q-63 0 -110.5 -46t-47.5 -114z" />
<glyph unicode="&#xb1;" horiz-adv-x="1114" d="M-16 0l24 143h891l-27 -143h-888zM90 612l27 144h372l58 321h143l-57 -321h373l-25 -144h-373l-57 -321h-143l57 321h-375z" />
<glyph unicode="&#xb2;" horiz-adv-x="618" d="M39 717l23 114l323 279q113 88 113 160q0 43 -29 67.5t-74 24.5q-100 0 -145 -125l-115 51q27 92 101.5 143.5t171.5 51.5q100 0 164.5 -56.5t64.5 -142.5q0 -76 -38 -129t-118 -121l-233 -196h319l-24 -121h-504z" />
<glyph unicode="&#xb3;" horiz-adv-x="657" d="M72 903l123 45q33 -127 141 -127q61 0 103 36t42 89q0 51 -33.5 77t-95.5 26h-65l20 114h74q55 0 95 32t40 81q0 41 -28.5 63.5t-69.5 22.5q-88 0 -139 -92l-111 47q29 76 100.5 121t165.5 45q96 0 157.5 -53.5t61.5 -133.5q0 -59 -41 -112.5t-96 -73.5q47 -23 75 -63.5 t28 -96.5q0 -106 -84 -178t-211 -72q-93 0 -163.5 52.5t-88.5 150.5z" />
<glyph unicode="&#xb4;" horiz-adv-x="813" d="M391 1206l154 260h194l-190 -260h-158z" />
<glyph unicode="&#xb5;" d="M-86 -442l260 1486h174l-115 -645q-8 -43 -8 -84q0 -92 59.5 -141t159.5 -49q127 0 225.5 93t125.5 237l104 589h174l-184 -1044h-164l27 152h-9q-55 -84 -148 -134.5t-214 -50.5q-61 0 -118.5 25.5t-86.5 66.5h-8l-14 -122l-70 -379h-170z" />
<glyph unicode="&#xb6;" horiz-adv-x="1257" d="M47 1036q0 129 62.5 227.5t168 150.5t230.5 52h590v-1908h-160v1742h-182v-1742h-158v1048h-90q-125 0 -230.5 52.5t-168 150.5t-62.5 227z" />
<glyph unicode="&#xb7;" horiz-adv-x="339" d="M43 664q0 55 38 93t91 38q55 0 93 -38t38 -93t-38 -93.5t-93 -38.5q-53 0 -91 38t-38 94z" />
<glyph unicode="&#xb8;" horiz-adv-x="825" d="M-10 -348l108 45q4 -31 28 -52.5t56 -21.5q43 0 73 27.5t30 75.5q0 33 -22.5 55t-57.5 22q-39 0 -74 -34l-84 41l105 190h108l-59 -100q31 6 45 6q70 0 112.5 -50.5t42.5 -129.5q0 -92 -62.5 -151.5t-164.5 -59.5q-68 0 -120 39.5t-64 97.5z" />
<glyph unicode="&#xb9;" horiz-adv-x="489" d="M147 1305l228 161h114l-133 -749h-133l101 571l-113 -84z" />
<glyph unicode="&#xba;" horiz-adv-x="1054" d="M115 961q0 135 66.5 260t187 201.5t274.5 76.5q178 0 285.5 -109.5t107.5 -291.5q0 -143 -70.5 -268t-192.5 -199t-265 -74q-115 0 -204 51t-139 143.5t-50 209.5zM283 971q0 -117 68.5 -189.5t170.5 -72.5q92 0 171 48t126 135t47 195q0 115 -71.5 188t-171.5 73 q-94 0 -172 -51.5t-123 -138.5t-45 -187z" />
<glyph unicode="&#xbb;" horiz-adv-x="1122" d="M23 211l385 354l-254 342l114 92l330 -444l-487 -444zM433 211l385 354l-254 342l114 92l330 -444l-487 -444z" />
<glyph unicode="&#xbc;" horiz-adv-x="1441" d="M107 68l1210 1413l100 -82l-1204 -1415zM198 1305l228 161h114l-133 -749h-133l101 571l-113 -84zM684 152l14 90l451 508h125l-86 -484h100l-21 -114h-100l-26 -152h-134l27 152h-350zM854 266h200l48 271h-7z" />
<glyph unicode="&#xbd;" horiz-adv-x="1585" d="M105 68l1210 1413l100 -82l-1204 -1415zM198 1305l228 161h114l-133 -749h-133l101 571l-113 -84zM891 0l21 115l325 278q113 88 113 160q0 43 -29.5 67.5t-75.5 24.5q-98 0 -145 -125l-113 51q27 92 102 143.5t171 51.5q100 0 163.5 -56.5t63.5 -142.5q0 -76 -38 -130 t-118 -120l-231 -196h318l-23 -121h-504z" />
<glyph unicode="&#xbe;" horiz-adv-x="1687" d="M162 903l123 45q33 -127 141 -127q61 0 103 36t42 89q0 51 -33.5 77t-95.5 26h-65l20 114h74q55 0 95 32t40 81q0 41 -28.5 63.5t-69.5 22.5q-88 0 -139 -92l-111 47q29 76 100.5 121t165.5 45q96 0 157.5 -53.5t61.5 -133.5q0 -59 -41 -112.5t-96 -73.5q47 -23 75 -63.5 t28 -96.5q0 -106 -84 -178t-211 -72q-93 0 -163.5 52.5t-88.5 150.5zM283 68l1210 1413l100 -82l-1204 -1415zM916 152l14 90l451 508h125l-86 -484h100l-21 -114h-100l-26 -152h-134l27 152h-350zM1086 266h200l48 271h-7z" />
<glyph unicode="&#xbf;" horiz-adv-x="976" d="M-35 -141q0 121 68.5 211t199.5 190q78 61 118 116.5t55 129.5l22 117h176l-22 -129q-18 -104 -66.5 -172t-171.5 -160q-94 -70 -147.5 -135.5t-53.5 -143.5q0 -86 60.5 -139t161.5 -53q102 0 172.5 57t99.5 146l149 -68q-47 -133 -160.5 -217t-285.5 -84q-107 0 -193 45 t-134 121t-48 168zM442 946q0 55 38 93t93 38t93.5 -38t38.5 -93t-38 -93t-94 -38q-55 0 -93 38t-38 93z" />
<glyph unicode="&#xc0;" horiz-adv-x="1370" d="M-102 0l813 1466h196l297 -1466h-184l-74 403h-633l-221 -403h-194zM399 567h514l-102 529l-29 157h-8zM643 1843h186l59 -260h-147z" />
<glyph unicode="&#xc1;" horiz-adv-x="1370" d="M-102 0l813 1466h196l297 -1466h-184l-74 403h-633l-221 -403h-194zM399 567h514l-102 529l-29 157h-8zM745 1583l154 260h194l-190 -260h-158z" />
<glyph unicode="&#xc2;" horiz-adv-x="1370" d="M-102 0l813 1466h196l297 -1466h-184l-74 403h-633l-221 -403h-194zM399 567h514l-102 529l-29 157h-8zM530 1595l2 11l252 237h154l166 -237l-2 -11h-156l-90 129h-16l-129 -129h-181z" />
<glyph unicode="&#xc3;" horiz-adv-x="1370" d="M-102 0l813 1466h196l297 -1466h-184l-74 403h-633l-221 -403h-194zM399 567h514l-102 529l-29 157h-8zM489 1618q16 115 78 174t152 59q35 0 66.5 -12t70.5 -37q37 -23 64.5 -35t58.5 -12q68 0 86 76h143q-14 -115 -76.5 -174.5t-152.5 -59.5q-35 0 -65.5 12.5 t-69.5 37.5q-37 23 -64.5 35t-60.5 12q-68 0 -86 -76h-144z" />
<glyph unicode="&#xc4;" horiz-adv-x="1370" d="M-102 0l813 1466h196l297 -1466h-184l-74 403h-633l-221 -403h-194zM399 567h514l-102 529l-29 157h-8zM569 1726q0 47 33 79t78 32q47 0 79 -31.5t32 -79.5q0 -45 -32 -77.5t-79 -32.5q-43 0 -77 33.5t-34 76.5zM907 1726q0 47 33 79t76 32q47 0 78.5 -31.5t31.5 -79.5 q0 -45 -31.5 -77.5t-78.5 -32.5q-43 0 -76 33.5t-33 76.5z" />
<glyph unicode="&#xc5;" horiz-adv-x="1370" d="M-102 0l772 1393q-31 31 -49.5 70.5t-18.5 84.5q0 88 61.5 149.5t149.5 61.5t150.5 -61.5t62.5 -149.5q0 -53 -26.5 -101t-71.5 -77l276 -1370h-184l-74 403h-633l-221 -403h-194zM399 567h514l-102 529l-29 153h-10zM725 1548q0 -37 25.5 -63.5t62.5 -26.5t63.5 26.5 t26.5 63.5t-26.5 63.5t-63.5 26.5t-62.5 -26.5t-25.5 -63.5z" />
<glyph unicode="&#xc6;" horiz-adv-x="1964" d="M-119 0l1133 1466h960l-28 -166h-676l-86 -485h610l-29 -164h-610l-86 -485h676l-31 -166h-848l72 403h-537l-311 -403h-209zM524 567h443l129 733h-9l-77 -102z" />
<glyph unicode="&#xc7;" horiz-adv-x="1515" d="M76 627q0 225 115.5 426.5t318.5 323.5t451 122q166 0 299 -68.5t202 -177.5l-139 -114q-68 100 -160 147t-221 47q-188 0 -347 -98t-251 -259t-92 -341q0 -150 63.5 -263.5t175 -176t248.5 -62.5q150 0 264.5 55.5t227.5 165.5l110 -125q-137 -135 -283.5 -198.5 t-338.5 -63.5l-41 -67q31 6 45 6q70 0 113 -50.5t43 -129.5q0 -92 -62.5 -151.5t-165.5 -59.5q-68 0 -120 39.5t-64 97.5l108 45q4 -31 28 -52.5t56 -21.5q43 0 73 27.5t30 75.5q0 33 -22.5 55t-57.5 22q-39 0 -74 -34l-84 41l90 163q-160 23 -281.5 110t-189 226.5 t-67.5 317.5z" />
<glyph unicode="&#xc8;" horiz-adv-x="1126" d="M29 0l260 1466h848l-29 -166h-676l-86 -485h610l-28 -164h-611l-86 -485h676l-30 -166h-848zM564 1843h186l59 -260h-147z" />
<glyph unicode="&#xc9;" horiz-adv-x="1126" d="M29 0l260 1466h848l-29 -166h-676l-86 -485h610l-28 -164h-611l-86 -485h676l-30 -166h-848zM666 1583l154 260h194l-190 -260h-158z" />
<glyph unicode="&#xca;" horiz-adv-x="1126" d="M29 0l260 1466h848l-29 -166h-676l-86 -485h610l-28 -164h-611l-86 -485h676l-30 -166h-848zM450 1595l2 11l252 237h154l166 -237l-2 -11h-156l-90 129h-16l-129 -129h-181z" />
<glyph unicode="&#xcb;" horiz-adv-x="1126" d="M29 0l260 1466h848l-29 -166h-676l-86 -485h610l-28 -164h-611l-86 -485h676l-30 -166h-848zM489 1726q0 47 33 79t78 32q47 0 79 -31.5t32 -79.5q0 -45 -32 -77.5t-79 -32.5q-43 0 -77 33.5t-34 76.5zM827 1726q0 47 33 79t76 32q47 0 78.5 -31.5t31.5 -79.5 q0 -45 -31.5 -77.5t-78.5 -32.5q-43 0 -76 33.5t-33 76.5z" />
<glyph unicode="&#xcc;" horiz-adv-x="499" d="M29 0l260 1466h172l-260 -1466h-172zM215 1843h186l59 -260h-147z" />
<glyph unicode="&#xcd;" horiz-adv-x="499" d="M29 0l260 1466h172l-260 -1466h-172zM317 1583l154 260h194l-190 -260h-158z" />
<glyph unicode="&#xce;" horiz-adv-x="499" d="M29 0l260 1466h172l-260 -1466h-172zM102 1595l2 11l252 237h154l166 -237l-2 -11h-156l-90 129h-16l-129 -129h-181z" />
<glyph unicode="&#xcf;" horiz-adv-x="501" d="M29 0l260 1466h172l-260 -1466h-172zM166 1729q0 47 32.5 78.5t77.5 31.5q47 0 78 -31.5t31 -78.5q0 -45 -30.5 -78t-78.5 -33q-45 0 -77.5 32.5t-32.5 78.5zM438 1729q0 47 33 78.5t76 31.5q47 0 78.5 -31.5t31.5 -78.5q0 -45 -31.5 -78t-78.5 -33q-43 0 -76 32.5 t-33 78.5z" />
<glyph unicode="&#xd0;" horiz-adv-x="1540" d="M100 659l25 144h156l118 663h443q199 0 340 -81.5t213.5 -224t72.5 -324.5q0 -223 -104 -415t-301 -306.5t-463 -114.5h-461l115 659h-154zM342 166h268q193 0 348.5 87t243.5 237.5t88 332.5q0 231 -126 354t-353 123h-270l-86 -497h415l-24 -144h-418z" />
<glyph unicode="&#xd1;" horiz-adv-x="1447" d="M29 0l260 1466h198l543 -1167h8l43 283l156 884h174l-260 -1466h-166l-567 1223h-8l-41 -283l-168 -940h-172zM514 1618q16 115 78 174t152 59q35 0 66.5 -12t70.5 -37q37 -23 64.5 -35t58.5 -12q68 0 86 76h143q-14 -115 -76.5 -174.5t-152.5 -59.5q-35 0 -65.5 12.5 t-69.5 37.5q-37 23 -64.5 35t-60.5 12q-68 0 -86 -76h-144z" />
<glyph unicode="&#xd2;" horiz-adv-x="1689" d="M76 633q0 225 110.5 424.5t308 320.5t447.5 121q184 0 336 -85t240 -236.5t88 -343.5q0 -225 -110 -425t-307.5 -321t-445.5 -121q-186 0 -338.5 85t-240.5 236.5t-88 344.5zM256 647q0 -156 66.5 -272.5t181 -179t256.5 -62.5q182 0 335.5 97.5t242.5 256t89 332.5 q0 156 -66.5 272.5t-182 179t-256.5 62.5q-182 0 -335 -97t-242 -256t-89 -333zM781 1843h186l59 -260h-147z" />
<glyph unicode="&#xd3;" horiz-adv-x="1689" d="M76 633q0 225 110.5 424.5t308 320.5t447.5 121q184 0 336 -85t240 -236.5t88 -343.5q0 -225 -110 -425t-307.5 -321t-445.5 -121q-186 0 -338.5 85t-240.5 236.5t-88 344.5zM256 647q0 -156 66.5 -272.5t181 -179t256.5 -62.5q182 0 335.5 97.5t242.5 256t89 332.5 q0 156 -66.5 272.5t-182 179t-256.5 62.5q-182 0 -335 -97t-242 -256t-89 -333zM883 1583l154 260h194l-190 -260h-158z" />
<glyph unicode="&#xd4;" horiz-adv-x="1689" d="M76 633q0 225 110.5 424.5t308 320.5t447.5 121q184 0 336 -85t240 -236.5t88 -343.5q0 -225 -110 -425t-307.5 -321t-445.5 -121q-186 0 -338.5 85t-240.5 236.5t-88 344.5zM256 647q0 -156 66.5 -272.5t181 -179t256.5 -62.5q182 0 335.5 97.5t242.5 256t89 332.5 q0 156 -66.5 272.5t-182 179t-256.5 62.5q-182 0 -335 -97t-242 -256t-89 -333zM667 1595l2 11l252 237h154l166 -237l-2 -11h-156l-90 129h-16l-129 -129h-181z" />
<glyph unicode="&#xd5;" horiz-adv-x="1689" d="M76 633q0 225 110.5 424.5t308 320.5t447.5 121q184 0 336 -85t240 -236.5t88 -343.5q0 -225 -110 -425t-307.5 -321t-445.5 -121q-186 0 -338.5 85t-240.5 236.5t-88 344.5zM256 647q0 -156 66.5 -272.5t181 -179t256.5 -62.5q182 0 335.5 97.5t242.5 256t89 332.5 q0 156 -66.5 272.5t-182 179t-256.5 62.5q-182 0 -335 -97t-242 -256t-89 -333zM626 1618q16 115 78 174t152 59q35 0 66.5 -12t70.5 -37q37 -23 64.5 -35t58.5 -12q68 0 86 76h143q-14 -115 -76.5 -174.5t-152.5 -59.5q-35 0 -65.5 12.5t-69.5 37.5q-37 23 -64.5 35 t-60.5 12q-68 0 -86 -76h-144z" />
<glyph unicode="&#xd6;" horiz-adv-x="1689" d="M76 633q0 225 110.5 424.5t308 320.5t447.5 121q184 0 336 -85t240 -236.5t88 -343.5q0 -225 -110 -425t-307.5 -321t-445.5 -121q-186 0 -338.5 85t-240.5 236.5t-88 344.5zM256 647q0 -156 66.5 -272.5t181 -179t256.5 -62.5q182 0 335.5 97.5t242.5 256t89 332.5 q0 156 -66.5 272.5t-182 179t-256.5 62.5q-182 0 -335 -97t-242 -256t-89 -333zM706 1726q0 47 33 79t78 32q47 0 79 -31.5t32 -79.5q0 -45 -32 -77.5t-79 -32.5q-43 0 -77 33.5t-34 76.5zM1044 1726q0 47 33 79t76 32q47 0 78.5 -31.5t31.5 -79.5q0 -45 -31.5 -77.5 t-78.5 -32.5q-43 0 -76 33.5t-33 76.5z" />
<glyph unicode="&#xd7;" horiz-adv-x="1087" d="M29 244l383 317l-267 313l109 93l268 -316l383 320l88 -107l-381 -317l267 -311l-109 -93l-268 314l-385 -320z" />
<glyph unicode="&#xd8;" horiz-adv-x="1689" d="M76 633q0 225 110.5 424.5t308 320.5t447.5 121q186 0 344 -90l111 139l119 -92l-111 -135q96 -90 148.5 -215t52.5 -272q0 -225 -110 -425t-307.5 -321t-445.5 -121q-190 0 -348 90l-108 -137l-121 90l108 135q-94 92 -146 216t-52 272zM256 647q0 -225 131 -362 l789 985q-117 63 -254 63q-182 0 -335 -97t-242 -256t-89 -333zM506 195q119 -61 254 -62q182 0 335.5 97.5t242.5 256t89 332.5q0 219 -133 363z" />
<glyph unicode="&#xd9;" horiz-adv-x="1353" d="M96 408q0 90 17 192l153 866h172l-159 -907q-12 -72 -13 -125q0 -139 78 -220t229 -81q174 0 288 111.5t147 290.5l163 931h172l-167 -954q-47 -258 -209 -401.5t-422 -143.5q-123 0 -225.5 54.5t-163 153.5t-60.5 233zM631 1843h186l59 -260h-147z" />
<glyph unicode="&#xda;" horiz-adv-x="1353" d="M96 408q0 90 17 192l153 866h172l-159 -907q-12 -72 -13 -125q0 -139 78 -220t229 -81q174 0 288 111.5t147 290.5l163 931h172l-167 -954q-47 -258 -209 -401.5t-422 -143.5q-123 0 -225.5 54.5t-163 153.5t-60.5 233zM733 1583l154 260h194l-190 -260h-158z" />
<glyph unicode="&#xdb;" horiz-adv-x="1353" d="M96 408q0 90 17 192l153 866h172l-159 -907q-12 -72 -13 -125q0 -139 78 -220t229 -81q174 0 288 111.5t147 290.5l163 931h172l-167 -954q-47 -258 -209 -401.5t-422 -143.5q-123 0 -225.5 54.5t-163 153.5t-60.5 233zM518 1595l2 11l252 237h154l166 -237l-2 -11h-156 l-90 129h-16l-129 -129h-181z" />
<glyph unicode="&#xdc;" horiz-adv-x="1353" d="M96 408q0 90 17 192l153 866h172l-159 -907q-12 -72 -13 -125q0 -139 78 -220t229 -81q174 0 288 111.5t147 290.5l163 931h172l-167 -954q-47 -258 -209 -401.5t-422 -143.5q-123 0 -225.5 54.5t-163 153.5t-60.5 233zM557 1726q0 47 33 79t78 32q47 0 79 -31.5 t32 -79.5q0 -45 -32 -77.5t-79 -32.5q-43 0 -77 33.5t-34 76.5zM895 1726q0 47 33 79t76 32q47 0 78.5 -31.5t31.5 -79.5q0 -45 -31.5 -77.5t-78.5 -32.5q-43 0 -76 33.5t-33 76.5z" />
<glyph unicode="&#xdd;" horiz-adv-x="1218" d="M156 1466h198l267 -614h8l477 614h209l-629 -788l-121 -678h-172l119 678zM651 1583l154 260h194l-190 -260h-158z" />
<glyph unicode="&#xde;" d="M16 0l260 1466h175l-45 -252h309q115 0 206 -48t142 -134t51 -196q0 -150 -69.5 -261.5t-192.5 -170t-279 -58.5h-321l-62 -346h-174zM283 512h323q143 0 235.5 77t92.5 224q0 106 -66.5 171t-167.5 65h-323z" />
<glyph unicode="&#xdf;" horiz-adv-x="1142" d="M14 0l187 1057q35 203 157.5 322.5t329.5 119.5q117 0 205 -47t136 -128t48 -179q0 -125 -67.5 -215t-178.5 -133v-9q87 -40 140 -123t53 -196q0 -141 -70.5 -252t-191.5 -172t-270 -61q-80 0 -130 10l29 164q55 -8 115 -8q145 0 241.5 81.5t96.5 221.5 q0 113 -68.5 182.5t-204.5 69.5h-67l28 159h56q80 0 151.5 32t115.5 92.5t44 141.5q0 92 -64.5 147.5t-164.5 55.5q-113 0 -192 -74.5t-101 -201.5l-184 -1057h-179z" />
<glyph unicode="&#xe0;" horiz-adv-x="1081" d="M49 287q0 174 128 277.5t351 103.5q82 0 161 -19.5t140 -52.5l13 61q6 35 6 60q0 92 -73 148.5t-183 56.5q-170 0 -281 -140l-135 97q74 94 186.5 146t247.5 52q188 0 296 -91t108 -245q0 -43 -10 -104l-115 -637h-166l27 147h-9q-55 -82 -145 -131t-205 -49 q-92 0 -171 42t-125 115t-46 163zM227 299q0 -82 58.5 -130t144.5 -48q141 0 245.5 93t129.5 239q-63 37 -127 55t-160 18q-129 0 -210 -60t-81 -167zM481 1507h186l60 -260h-148z" />
<glyph unicode="&#xe1;" horiz-adv-x="1081" d="M49 287q0 174 128 277.5t351 103.5q82 0 161 -19.5t140 -52.5l13 61q6 35 6 60q0 92 -73 148.5t-183 56.5q-170 0 -281 -140l-135 97q74 94 186.5 146t247.5 52q188 0 296 -91t108 -245q0 -43 -10 -104l-115 -637h-166l27 147h-9q-55 -82 -145 -131t-205 -49 q-92 0 -171 42t-125 115t-46 163zM227 299q0 -82 58.5 -130t144.5 -48q141 0 245.5 93t129.5 239q-63 37 -127 55t-160 18q-129 0 -210 -60t-81 -167zM569 1247l152 260h194l-190 -260h-156z" />
<glyph unicode="&#xe2;" horiz-adv-x="1081" d="M49 287q0 174 128 277.5t351 103.5q82 0 161 -19.5t140 -52.5l13 61q6 35 6 60q0 92 -73 148.5t-183 56.5q-170 0 -281 -140l-135 97q74 94 186.5 146t247.5 52q188 0 296 -91t108 -245q0 -43 -10 -104l-115 -637h-166l27 147h-9q-55 -82 -145 -131t-205 -49 q-92 0 -171 42t-125 115t-46 163zM227 299q0 -82 58.5 -130t144.5 -48q141 0 245.5 93t129.5 239q-63 37 -127 55t-160 18q-129 0 -210 -60t-81 -167zM356 1257l2 11l252 239h151l168 -239l-2 -11h-157l-88 132h-19l-127 -132h-180z" />
<glyph unicode="&#xe3;" horiz-adv-x="1081" d="M49 287q0 174 128 277.5t351 103.5q82 0 161 -19.5t140 -52.5l13 61q6 35 6 60q0 92 -73 148.5t-183 56.5q-170 0 -281 -140l-135 97q74 94 186.5 146t247.5 52q188 0 296 -91t108 -245q0 -43 -10 -104l-115 -637h-166l27 147h-9q-55 -82 -145 -131t-205 -49 q-92 0 -171 42t-125 115t-46 163zM227 299q0 -82 58.5 -130t144.5 -48q141 0 245.5 93t129.5 239q-63 37 -127 55t-160 18q-129 0 -210 -60t-81 -167zM314 1282q14 115 75.5 173t151.5 58q35 0 63.5 -12t73.5 -37q37 -23 64.5 -35t60.5 -12q66 0 84 76h146 q-16 -115 -78 -173t-152 -58q-35 0 -65.5 12t-69.5 37q-37 23 -64.5 35t-60.5 12q-68 0 -86 -76h-143z" />
<glyph unicode="&#xe4;" horiz-adv-x="1081" d="M49 287q0 174 128 277.5t351 103.5q82 0 161 -19.5t140 -52.5l13 61q6 35 6 60q0 92 -73 148.5t-183 56.5q-170 0 -281 -140l-135 97q74 94 186.5 146t247.5 52q188 0 296 -91t108 -245q0 -43 -10 -104l-115 -637h-166l27 147h-9q-55 -82 -145 -131t-205 -49 q-92 0 -171 42t-125 115t-46 163zM227 299q0 -82 58.5 -130t144.5 -48q141 0 245.5 93t129.5 239q-63 37 -127 55t-160 18q-129 0 -210 -60t-81 -167zM396 1391q0 47 31.5 77.5t76.5 30.5q49 0 80 -30.5t31 -77.5q0 -45 -32 -78t-79 -33q-43 0 -75.5 33t-32.5 78zM732 1391 q0 47 32.5 77.5t77.5 30.5q47 0 78 -30.5t31 -77.5q0 -45 -31 -78t-78 -33q-45 0 -77.5 33t-32.5 78z" />
<glyph unicode="&#xe5;" horiz-adv-x="1081" d="M49 287q0 174 128 277.5t351 103.5q82 0 161 -19.5t140 -52.5l13 61q6 35 6 60q0 92 -73 148.5t-183 56.5q-170 0 -281 -140l-135 97q74 94 186.5 146t247.5 52q188 0 296 -91t108 -245q0 -43 -10 -104l-115 -637h-166l27 147h-9q-55 -82 -145 -131t-205 -49 q-92 0 -171 42t-125 115t-46 163zM227 299q0 -82 58.5 -130t144.5 -48q141 0 245.5 93t129.5 239q-63 37 -127 55t-160 18q-129 0 -210 -60t-81 -167zM465 1417q0 88 62.5 149.5t150.5 61.5t149.5 -61.5t61.5 -149.5t-61.5 -150.5t-149.5 -62.5t-150.5 62.5t-62.5 150.5z M582 1417q0 -41 27.5 -69.5t68.5 -28.5q39 0 67.5 28.5t28.5 69.5q0 39 -28.5 67.5t-67.5 28.5q-41 0 -68.5 -27.5t-27.5 -68.5z" />
<glyph unicode="&#xe6;" horiz-adv-x="1933" d="M49 287q0 186 137.5 283.5t356.5 97.5q92 0 168.5 -20.5t119.5 -47.5l13 64q6 43 6 47q0 96 -68.5 153.5t-181.5 57.5q-88 0 -161.5 -36t-116.5 -104l-144 84q63 100 175 155.5t259 55.5q131 0 227.5 -54t137.5 -142q74 94 182.5 145t237.5 51q135 0 233.5 -59.5 t149.5 -159.5t51 -221q0 -86 -19 -148h-825q-4 -37 -4 -65q0 -90 42 -158.5t109.5 -104.5t145.5 -36q123 0 206 49t142 145l133 -75q-78 -135 -202.5 -206t-288.5 -71q-145 0 -253 76t-153 188q-82 -131 -204.5 -197.5t-268.5 -66.5q-92 0 -171 42t-125 115t-46 163z M227 299q0 -82 58.5 -130t144.5 -48q141 0 245.5 93t129.5 239q-131 74 -287 73q-129 0 -210 -60t-81 -167zM1014 633h643v29q0 66 -32 125t-95.5 96t-153.5 37q-129 0 -226 -81t-136 -206z" />
<glyph unicode="&#xe7;" horiz-adv-x="1114" d="M27 449q0 174 77.5 317t216 227t314.5 84q168 0 274.5 -84t141.5 -205l-162 -63q-29 92 -99.5 143.5t-175.5 51.5q-113 0 -207 -59.5t-149 -164t-55 -235.5q0 -143 83 -239.5t218 -96.5q106 0 191 52t134 147l140 -68q-82 -147 -200 -218t-288 -71h-10l-41 -67q31 6 45 6 q70 0 113 -50.5t43 -129.5q0 -92 -62.5 -151.5t-165.5 -59.5q-68 0 -120 39.5t-64 97.5l109 45q4 -31 27.5 -52.5t56.5 -21.5q43 0 72.5 27.5t29.5 75.5q0 33 -22.5 55t-57.5 22q-39 0 -74 -34l-84 41l95 170q-156 37 -250 169t-94 300z" />
<glyph unicode="&#xe8;" horiz-adv-x="1155" d="M27 446q0 164 73.5 309.5t208.5 233.5t309 88q135 0 233.5 -59.5t150 -159.5t51.5 -221q0 -88 -19 -148h-827q-4 -41 -4 -65q0 -90 42 -158.5t111.5 -104.5t147.5 -36q121 0 205 50t141 144l133 -75q-78 -135 -203 -206t-286 -71q-142 0 -248.5 64.5t-162.5 174 t-56 240.5zM236 633h643v29q0 68 -33 127t-96.5 95t-151.5 36q-131 0 -228.5 -82t-133.5 -205zM481 1507h186l60 -260h-148z" />
<glyph unicode="&#xe9;" horiz-adv-x="1155" d="M27 446q0 164 73.5 309.5t208.5 233.5t309 88q135 0 233.5 -59.5t150 -159.5t51.5 -221q0 -88 -19 -148h-827q-4 -41 -4 -65q0 -90 42 -158.5t111.5 -104.5t147.5 -36q121 0 205 50t141 144l133 -75q-78 -135 -203 -206t-286 -71q-142 0 -248.5 64.5t-162.5 174 t-56 240.5zM236 633h643v29q0 68 -33 127t-96.5 95t-151.5 36q-131 0 -228.5 -82t-133.5 -205zM569 1247l152 260h194l-190 -260h-156z" />
<glyph unicode="&#xea;" horiz-adv-x="1155" d="M27 446q0 164 73.5 309.5t208.5 233.5t309 88q135 0 233.5 -59.5t150 -159.5t51.5 -221q0 -88 -19 -148h-827q-4 -41 -4 -65q0 -90 42 -158.5t111.5 -104.5t147.5 -36q121 0 205 50t141 144l133 -75q-78 -135 -203 -206t-286 -71q-142 0 -248.5 64.5t-162.5 174 t-56 240.5zM236 633h643v29q0 68 -33 127t-96.5 95t-151.5 36q-131 0 -228.5 -82t-133.5 -205zM356 1257l2 11l252 239h151l168 -239l-2 -11h-157l-88 132h-19l-127 -132h-180z" />
<glyph unicode="&#xeb;" horiz-adv-x="1155" d="M27 446q0 164 73.5 309.5t208.5 233.5t309 88q135 0 233.5 -59.5t150 -159.5t51.5 -221q0 -88 -19 -148h-827q-4 -41 -4 -65q0 -90 42 -158.5t111.5 -104.5t147.5 -36q121 0 205 50t141 144l133 -75q-78 -135 -203 -206t-286 -71q-142 0 -248.5 64.5t-162.5 174 t-56 240.5zM236 633h643v29q0 68 -33 127t-96.5 95t-151.5 36q-131 0 -228.5 -82t-133.5 -205zM396 1391q0 47 31.5 77.5t76.5 30.5q49 0 80 -30.5t31 -77.5q0 -45 -32 -78t-79 -33q-43 0 -75.5 33t-32.5 78zM732 1391q0 47 32.5 77.5t77.5 30.5q47 0 78 -30.5t31 -77.5 q0 -45 -31 -78t-78 -33q-45 0 -77.5 33t-32.5 78z" />
<glyph unicode="&#xec;" horiz-adv-x="464" d="M12 0l183 1044h174l-185 -1044h-172zM150 1507h186l60 -260h-148z" />
<glyph unicode="&#xed;" horiz-adv-x="464" d="M12 0l183 1044h174l-185 -1044h-172zM237 1247l152 260h194l-190 -260h-156z" />
<glyph unicode="&#xee;" horiz-adv-x="464" d="M12 0l183 1044h174l-185 -1044h-172zM25 1257l2 11l252 239h151l168 -239l-2 -11h-157l-88 132h-19l-127 -132h-180z" />
<glyph unicode="&#xef;" horiz-adv-x="464" d="M12 0l183 1044h174l-185 -1044h-172zM94 1391q0 47 33 77.5t78 30.5q47 0 78.5 -30.5t31.5 -77.5q0 -45 -31.5 -78t-78.5 -33q-43 0 -77 33t-34 78zM367 1391q0 47 32.5 77.5t77.5 30.5q47 0 78 -30.5t31 -77.5q0 -45 -31 -78t-78 -33q-45 0 -77.5 33t-32.5 78z" />
<glyph unicode="&#xf0;" horiz-adv-x="1189" d="M31 432q0 156 70.5 288t198.5 209t292 77q170 0 287 -121l10 6q-18 82 -58 143.5t-106 130.5l-279 -112l-49 121l211 83q-96 61 -211 91l58 147q190 -51 329 -166l230 96l47 -118l-174 -74q94 -111 146 -259.5t52 -309.5q0 -188 -65.5 -347t-196.5 -254.5t-317 -95.5 q-133 0 -241.5 61.5t-171 168t-62.5 235.5zM211 440q0 -86 41 -156.5t111.5 -110.5t158.5 -40q103 0 186 53.5t131 144.5t48 197q0 137 -79 227.5t-216 90.5q-111 0 -198 -54.5t-135 -147.5t-48 -204z" />
<glyph unicode="&#xf1;" d="M-2 0l182 1044h166l-27 -153h9q55 84 146 135t210 51q156 0 246 -85t90 -224q0 -72 -14 -145l-111 -623h-172l111 627q12 59 12 102q0 90 -60.5 140.5t-160.5 50.5q-127 0 -225.5 -94.5t-125.5 -237.5l-104 -588h-172zM353 1282q14 115 75.5 173t151.5 58q35 0 63.5 -12 t73.5 -37q37 -23 64.5 -35t60.5 -12q66 0 84 76h146q-16 -115 -78 -173t-152 -58q-35 0 -65.5 12t-69.5 37q-37 23 -64.5 35t-60.5 12q-68 0 -86 -76h-143z" />
<glyph unicode="&#xf2;" horiz-adv-x="1198" d="M27 465q0 168 76.5 308t216 222t319.5 82q139 0 247.5 -65.5t169 -179t60.5 -252.5q0 -170 -76.5 -310.5t-216 -221.5t-317.5 -81q-139 0 -249 65.5t-170 179.5t-60 253zM203 475q0 -100 41 -180t113.5 -125t166.5 -45q121 0 215.5 60.5t147.5 162t53 221.5q0 98 -41 178 t-113.5 126.5t-167.5 46.5q-119 0 -214 -60.5t-148 -163t-53 -221.5zM508 1507h186l60 -260h-148z" />
<glyph unicode="&#xf3;" horiz-adv-x="1198" d="M27 465q0 168 76.5 308t216 222t319.5 82q139 0 247.5 -65.5t169 -179t60.5 -252.5q0 -170 -76.5 -310.5t-216 -221.5t-317.5 -81q-139 0 -249 65.5t-170 179.5t-60 253zM203 475q0 -100 41 -180t113.5 -125t166.5 -45q121 0 215.5 60.5t147.5 162t53 221.5q0 98 -41 178 t-113.5 126.5t-167.5 46.5q-119 0 -214 -60.5t-148 -163t-53 -221.5zM596 1247l152 260h194l-190 -260h-156z" />
<glyph unicode="&#xf4;" horiz-adv-x="1198" d="M27 465q0 168 76.5 308t216 222t319.5 82q139 0 247.5 -65.5t169 -179t60.5 -252.5q0 -170 -76.5 -310.5t-216 -221.5t-317.5 -81q-139 0 -249 65.5t-170 179.5t-60 253zM203 475q0 -100 41 -180t113.5 -125t166.5 -45q121 0 215.5 60.5t147.5 162t53 221.5q0 98 -41 178 t-113.5 126.5t-167.5 46.5q-119 0 -214 -60.5t-148 -163t-53 -221.5zM383 1257l2 11l252 239h151l168 -239l-2 -11h-157l-88 132h-19l-127 -132h-180z" />
<glyph unicode="&#xf5;" horiz-adv-x="1198" d="M27 465q0 168 76.5 308t216 222t319.5 82q139 0 247.5 -65.5t169 -179t60.5 -252.5q0 -170 -76.5 -310.5t-216 -221.5t-317.5 -81q-139 0 -249 65.5t-170 179.5t-60 253zM203 475q0 -100 41 -180t113.5 -125t166.5 -45q121 0 215.5 60.5t147.5 162t53 221.5q0 98 -41 178 t-113.5 126.5t-167.5 46.5q-119 0 -214 -60.5t-148 -163t-53 -221.5zM340 1282q14 115 75.5 173t151.5 58q35 0 63.5 -12t73.5 -37q37 -23 64.5 -35t60.5 -12q66 0 84 76h146q-16 -115 -78 -173t-152 -58q-35 0 -65.5 12t-69.5 37q-37 23 -64.5 35t-60.5 12q-68 0 -86 -76 h-143z" />
<glyph unicode="&#xf6;" horiz-adv-x="1198" d="M27 465q0 168 76.5 308t216 222t319.5 82q139 0 247.5 -65.5t169 -179t60.5 -252.5q0 -170 -76.5 -310.5t-216 -221.5t-317.5 -81q-139 0 -249 65.5t-170 179.5t-60 253zM203 475q0 -100 41 -180t113.5 -125t166.5 -45q121 0 215.5 60.5t147.5 162t53 221.5q0 98 -41 178 t-113.5 126.5t-167.5 46.5q-119 0 -214 -60.5t-148 -163t-53 -221.5zM422 1391q0 47 31.5 77.5t76.5 30.5q49 0 80 -30.5t31 -77.5q0 -45 -32 -78t-79 -33q-43 0 -75.5 33t-32.5 78zM758 1391q0 47 32.5 77.5t77.5 30.5q47 0 78 -30.5t31 -77.5q0 -45 -31 -78t-78 -33 q-45 0 -77.5 33t-32.5 78z" />
<glyph unicode="&#xf7;" horiz-adv-x="1114" d="M66 483l26 144h891l-27 -144h-890zM328 172q0 53 37.5 91t91.5 38q55 0 93 -38t38 -91q0 -55 -38 -93t-93 -38q-54 0 -91.5 38t-37.5 93zM461 938q0 55 38 93t93 38q53 0 91 -38t38 -93q0 -53 -38 -91t-91 -38q-55 0 -93 38t-38 91z" />
<glyph unicode="&#xf8;" horiz-adv-x="1198" d="M27 465q0 168 76.5 308t216 222t319.5 82q129 0 240 -61l75 98l109 -84l-78 -100q63 -66 97 -156t34 -194q0 -170 -76.5 -310.5t-216 -221.5t-317.5 -81q-125 0 -232 56l-69 -89l-111 82l70 88q-66 68 -101.5 161t-35.5 200zM203 475q0 -131 71 -229l498 633 q-70 41 -154 41q-119 0 -214 -60.5t-148 -163t-53 -221.5zM381 158q70 -33 143 -33q121 0 215.5 60.5t147.5 162t53 221.5q0 129 -66 219z" />
<glyph unicode="&#xf9;" d="M49 276q0 68 14 146l111 622h174l-112 -626q-10 -68 -11 -103q0 -90 60.5 -140t158.5 -50q127 0 225.5 93t125.5 237l104 589h174l-184 -1044h-164l27 152h-9q-55 -84 -147 -134.5t-211 -50.5q-156 0 -246 85t-90 224zM492 1507h186l60 -260h-148z" />
<glyph unicode="&#xfa;" d="M49 276q0 68 14 146l111 622h174l-112 -626q-10 -68 -11 -103q0 -90 60.5 -140t158.5 -50q127 0 225.5 93t125.5 237l104 589h174l-184 -1044h-164l27 152h-9q-55 -84 -147 -134.5t-211 -50.5q-156 0 -246 85t-90 224zM579 1247l152 260h194l-190 -260h-156z" />
<glyph unicode="&#xfb;" d="M49 276q0 68 14 146l111 622h174l-112 -626q-10 -68 -11 -103q0 -90 60.5 -140t158.5 -50q127 0 225.5 93t125.5 237l104 589h174l-184 -1044h-164l27 152h-9q-55 -84 -147 -134.5t-211 -50.5q-156 0 -246 85t-90 224zM367 1257l2 11l252 239h151l168 -239l-2 -11h-157 l-88 132h-19l-127 -132h-180z" />
<glyph unicode="&#xfc;" d="M49 276q0 68 14 146l111 622h174l-112 -626q-10 -68 -11 -103q0 -90 60.5 -140t158.5 -50q127 0 225.5 93t125.5 237l104 589h174l-184 -1044h-164l27 152h-9q-55 -84 -147 -134.5t-211 -50.5q-156 0 -246 85t-90 224zM406 1391q0 47 31.5 77.5t76.5 30.5q49 0 80 -30.5 t31 -77.5q0 -45 -32 -78t-79 -33q-43 0 -75.5 33t-32.5 78zM742 1391q0 47 32.5 77.5t77.5 30.5q47 0 78 -30.5t31 -77.5q0 -45 -31 -78t-78 -33q-45 0 -77.5 33t-32.5 78z" />
<glyph unicode="&#xfd;" horiz-adv-x="1056" d="M33 -442l323 510l-260 976h185l192 -776h4l455 776h194l-911 -1486h-182zM549 1247l152 260h194l-190 -260h-156z" />
<glyph unicode="&#xfe;" horiz-adv-x="1198" d="M-59 -442l335 1908h175l-76 -430l-35 -145h8q59 86 154.5 136t224.5 50q121 0 218 -58t152.5 -166t55.5 -251q0 -172 -78 -318.5t-216 -231.5t-310 -85q-115 0 -203 54.5t-127 134.5h-8l-18 -146l-80 -452h-172zM268 444q0 -147 84 -233t211 -86q119 0 213 60.5 t147.5 167t53.5 235.5q0 152 -83 242t-214 90q-115 0 -209 -63.5t-148.5 -172.5t-54.5 -240z" />
<glyph unicode="&#xff;" horiz-adv-x="1056" d="M33 -442l323 510l-260 976h185l192 -776h4l455 776h194l-911 -1486h-182zM375 1391q0 47 31.5 77.5t76.5 30.5q49 0 80 -30.5t31 -77.5q0 -45 -32 -78t-79 -33q-43 0 -75.5 33t-32.5 78zM711 1391q0 47 32.5 77.5t77.5 30.5q47 0 78 -30.5t31 -77.5q0 -45 -31 -78 t-78 -33q-45 0 -77.5 33t-32.5 78z" />
<glyph unicode="&#x152;" horiz-adv-x="2385" d="M76 633q0 225 110.5 424.5t309 320.5t448.5 121q180 0 326.5 -81t230.5 -224l49 272h848l-28 -166h-676l-86 -485h610l-29 -164h-610l-86 -485h676l-31 -166h-848l37 203q-117 -113 -264.5 -174.5t-319.5 -61.5q-186 0 -338.5 85t-240.5 236.5t-88 344.5zM256 647 q0 -156 66.5 -272.5t181 -179t256.5 -62.5q182 0 334.5 97.5t241.5 256t89 332.5q0 156 -66.5 272.5t-181 179t-255.5 62.5q-182 0 -336 -97t-242 -256t-88 -333z" />
<glyph unicode="&#x153;" horiz-adv-x="2058" d="M27 465q0 168 76.5 308t216 222t319.5 82q139 0 247.5 -66.5t166.5 -181.5q80 115 200.5 181.5t270.5 66.5q133 0 231 -59.5t150.5 -159.5t52.5 -221q0 -86 -19 -148h-827q-4 -37 -4 -65q0 -90 42 -158.5t109.5 -104.5t145.5 -36q125 0 208 49t140 145l133 -75 q-76 -135 -200.5 -206t-288.5 -71q-137 0 -241.5 63.5t-162.5 172.5q-82 -111 -208 -173.5t-279 -62.5q-139 0 -249 65.5t-170 179.5t-60 253zM203 475q0 -100 41 -180t113.5 -125t166.5 -45q121 0 215.5 60.5t147.5 162t53 221.5q0 100 -41 180t-113.5 125.5t-167.5 45.5 q-119 0 -214 -60.5t-148 -163t-53 -221.5zM1141 633h641v29q0 104 -73 181t-206 77q-131 0 -227 -81t-135 -206z" />
<glyph unicode="&#x178;" horiz-adv-x="1218" d="M156 1466h198l267 -614h8l477 614h209l-629 -788l-121 -678h-172l119 678zM475 1726q0 47 33 79t78 32q47 0 79 -31.5t32 -79.5q0 -45 -32 -77.5t-79 -32.5q-43 0 -77 33.5t-34 76.5zM813 1726q0 47 33 79t76 32q47 0 78.5 -31.5t31.5 -79.5q0 -45 -31.5 -77.5 t-78.5 -32.5q-43 0 -76 33.5t-33 76.5z" />
<glyph unicode="&#x2c6;" horiz-adv-x="808" d="M201 1219l2 10l252 237h153l166 -237l-2 -10h-156l-90 129h-16l-129 -129h-180z" />
<glyph unicode="&#x2dc;" horiz-adv-x="815" d="M154 1241q16 115 77.5 174.5t151.5 59.5q35 0 66.5 -12.5t70.5 -37.5q37 -23 64.5 -35t58.5 -12q68 0 86 76h143q-14 -115 -76.5 -174t-152.5 -59q-35 0 -65.5 12t-69.5 37q-37 23 -64.5 35t-60.5 12q-68 0 -86 -76h-143z" />
<glyph unicode="&#x2000;" horiz-adv-x="925" />
<glyph unicode="&#x2001;" horiz-adv-x="1851" />
<glyph unicode="&#x2002;" horiz-adv-x="925" />
<glyph unicode="&#x2003;" horiz-adv-x="1851" />
<glyph unicode="&#x2004;" horiz-adv-x="617" />
<glyph unicode="&#x2005;" horiz-adv-x="462" />
<glyph unicode="&#x2006;" horiz-adv-x="308" />
<glyph unicode="&#x2007;" horiz-adv-x="308" />
<glyph unicode="&#x2008;" horiz-adv-x="231" />
<glyph unicode="&#x2009;" horiz-adv-x="370" />
<glyph unicode="&#x200a;" horiz-adv-x="102" />
<glyph unicode="&#x2010;" horiz-adv-x="874" d="M80 563l24 144h652l-25 -144h-651z" />
<glyph unicode="&#x2011;" horiz-adv-x="874" d="M80 563l24 144h652l-25 -144h-651z" />
<glyph unicode="&#x2012;" horiz-adv-x="874" d="M80 563l24 144h652l-25 -144h-651z" />
<glyph unicode="&#x2013;" horiz-adv-x="1200" d="M86 563l25 144h974l-24 -144h-975z" />
<glyph unicode="&#x2014;" horiz-adv-x="1814" d="M86 563l25 144h1589l-25 -144h-1589z" />
<glyph unicode="&#x2018;" horiz-adv-x="458" d="M152 1176q0 29 18 58.5t59 80.5l158 184l70 -59l-121 -148q27 -10 51.5 -40.5t24.5 -75.5q0 -55 -39 -93.5t-90 -38.5q-55 0 -93 38t-38 94z" />
<glyph unicode="&#x2019;" horiz-adv-x="466" d="M162 1104l117 147q-72 39 -72 117q0 55 39 93t90 38q55 0 93 -38t38 -93q0 -29 -18.5 -58.5t-59.5 -80.5l-158 -185z" />
<glyph unicode="&#x201a;" horiz-adv-x="458" d="M-49 -147l121 147q-27 10 -51.5 41t-24.5 76q0 55 39 93t90 38q55 0 93 -38t38 -93q0 -29 -18.5 -58.5t-59.5 -81.5l-158 -184z" />
<glyph unicode="&#x201c;" horiz-adv-x="802" d="M144 1176q0 29 18 58.5t59 80.5l158 184l70 -59l-121 -148q27 -10 51.5 -40.5t24.5 -75.5q0 -55 -39 -93.5t-90 -38.5q-55 0 -93 38t-38 94zM488 1176q0 29 18 58.5t59 80.5l158 184l70 -59l-121 -148q27 -10 51.5 -40.5t24.5 -75.5q0 -55 -39 -93.5t-90 -38.5 q-55 0 -93 38t-38 94z" />
<glyph unicode="&#x201d;" horiz-adv-x="802" d="M186 1104l121 147q-27 10 -51.5 41t-24.5 76q0 55 39 93t90 38q55 0 93.5 -38t38.5 -93q0 -29 -18.5 -58.5t-59.5 -80.5l-158 -185zM530 1104l121 147q-27 10 -51.5 41t-24.5 76q0 55 39 93t91 38q55 0 93 -38t38 -93q0 -29 -18.5 -58.5t-59.5 -80.5l-158 -185z" />
<glyph unicode="&#x201e;" horiz-adv-x="802" d="M-47 -147l121 147q-27 10 -51.5 41t-24.5 76q0 55 39 93t90 38q55 0 93 -38t38 -93q0 -29 -18.5 -58.5t-59.5 -81.5l-157 -184zM297 -147l121 147q-27 10 -51.5 41t-24.5 76q0 55 39 93t90 38q55 0 93 -38t38 -93q0 -29 -18.5 -58.5t-59.5 -81.5l-157 -184z" />
<glyph unicode="&#x2022;" horiz-adv-x="780" d="M147 664q0 96 68 163.5t162 67.5q96 0 163.5 -67.5t67.5 -163.5q0 -94 -67.5 -163t-163.5 -69q-94 0 -162 67.5t-68 164.5z" />
<glyph unicode="&#x2026;" horiz-adv-x="1394" d="M-16 119q0 53 37.5 91t93.5 38q53 0 91 -38t38 -91q0 -55 -38 -93t-91 -38q-56 0 -93.5 37.5t-37.5 93.5zM455 119q0 53 37.5 91t93.5 38q53 0 91 -38t38 -91q0 -55 -38 -93t-91 -38q-56 0 -93.5 37.5t-37.5 93.5zM926 119q0 53 37.5 91t93.5 38q53 0 91 -38t38 -91 q0 -55 -38 -93t-91 -38q-56 0 -93.5 37.5t-37.5 93.5z" />
<glyph unicode="&#x202f;" horiz-adv-x="370" />
<glyph unicode="&#x2039;" horiz-adv-x="712" d="M37 555l487 444l90 -100l-387 -354l254 -342l-112 -92z" />
<glyph unicode="&#x203a;" horiz-adv-x="712" d="M27 211l385 354l-254 342l114 92l330 -444l-487 -444z" />
<glyph unicode="&#x205f;" horiz-adv-x="462" />
<glyph unicode="&#x20ac;" horiz-adv-x="1277" d="M2 465l25 143h166v2q0 86 22 183h-156l25 143h176q94 219 292 358.5t454 139.5q178 0 301 -91l-95 -143q-88 66 -233 66q-176 0 -315.5 -90.5t-214.5 -239.5h479l-25 -143h-510q-23 -78 -22 -183v-2h499l-24 -143h-459q37 -162 148.5 -246t257.5 -84q139 0 266 66 l67 -144q-84 -47 -169 -68.5t-185 -21.5q-221 0 -377.5 131t-193.5 367h-199z" />
<glyph unicode="&#x2122;" horiz-adv-x="1021" d="M16 1384v82h367v-82h-135v-380h-90v380h-142zM461 1004v462h123l131 -336h4l131 336h123v-462h-86v249l4 90h-4l-139 -339h-62l-139 339h-4l4 -90v-249h-86z" />
<glyph unicode="&#x25fc;" horiz-adv-x="1044" d="M0 0v1044h1044v-1044h-1044z" />
</font>
</defs>
</svg>
