<?xml version="1.0" standalone="no"?>
<!DOCTYPE svg PUBLIC "-//W3C//DTD SVG 1.1//EN" "http://www.w3.org/Graphics/SVG/1.1/DTD/svg11.dtd" >
<svg xmlns="http://www.w3.org/2000/svg" xmlns:xlink="http://www.w3.org/1999/xlink" version="1.1">
<metadata></metadata>
<defs>
<font id="google_sansbold_italic" horiz-adv-x="1228" >
<font-face units-per-em="2048" ascent="1638" descent="-410" />
<missing-glyph horiz-adv-x="450" />
<glyph horiz-adv-x="0" />
<glyph unicode="&#xd;" horiz-adv-x="0" />
<glyph horiz-adv-x="0" />
<glyph unicode="&#x9;" horiz-adv-x="0" />
<glyph unicode="&#xa;" horiz-adv-x="0" />
<glyph unicode=" "  horiz-adv-x="450" />
<glyph unicode="&#x09;" horiz-adv-x="450" />
<glyph unicode="&#xa0;" horiz-adv-x="450" />
<glyph unicode="!" horiz-adv-x="550" d="M0 166q0 74 51 125t125 51t126 -51t52 -125t-52 -126t-126 -52t-125 52t-51 126zM123 504l70 540l73 422h277l-74 -422l-123 -540h-223z" />
<glyph unicode="&#x22;" horiz-adv-x="776" d="M137 1004l82 462h244l-82 -462h-244zM489 1004l82 462h244l-82 -462h-244z" />
<glyph unicode="#" horiz-adv-x="1345" d="M37 393l41 209h233l37 215h-239l38 209h236l68 375h227l-68 -375h230l67 375h226l-66 -375h236l-37 -209h-236l-37 -215h240l-37 -209h-240l-67 -393h-227l69 393h-229l-70 -393h-227l69 393h-237zM532 598h238l39 223h-238z" />
<glyph unicode="$" horiz-adv-x="1144" d="M-8 369l239 96q14 -82 60.5 -144.5t118.5 -87.5l67 390q-315 137 -315 399q0 111 57 199t160.5 143t241.5 66l30 176h183l-33 -185q127 -29 203.5 -108.5t107.5 -179.5l-242 -93q-18 49 -44.5 82t-67.5 49l-66 -368q164 -74 244 -165t80 -224q0 -190 -129 -306t-340 -135 l-31 -178h-182l31 182q-141 29 -245 132.5t-128 259.5zM416 1032q0 -45 25.5 -81t82.5 -68l54 303q-74 -12 -118 -50t-44 -104zM592 223q70 17 111.5 60t41.5 112q0 51 -23.5 85t-74.5 65z" />
<glyph unicode="%" horiz-adv-x="1722" d="M123 1040q0 104 52 194.5t146.5 145t215.5 54.5q139 0 229 -87t90 -223q0 -109 -53 -197.5t-146.5 -141t-203.5 -52.5q-146 0 -238 87t-92 220zM215 80l1149 1356l137 -119l-1149 -1356zM346 1063q0 -57 36 -93t89 -36q70 0 116 50t46 122q0 55 -34 91t-85 36 q-74 0 -121 -48t-47 -122zM860 274q0 104 53.5 194.5t147.5 145t215 54.5q139 0 229 -87t90 -223q0 -109 -54 -197.5t-146 -141t-203 -52.5q-148 0 -240 87t-92 220zM1083 297q0 -57 36 -93t89 -36q70 0 117 50t47 122q0 55 -34.5 91t-86.5 36q-74 0 -121 -48t-47 -122z" />
<glyph unicode="&#x26;" horiz-adv-x="1325" d="M16 418q0 160 80 284.5t234 208.5q-51 106 -51 193q0 106 51 197.5t147 144.5t223 53q141 0 227.5 -68.5t125.5 -183.5l-240 -104q-12 51 -50 86t-95 35t-97.5 -38t-40.5 -93q0 -33 11.5 -62t33.5 -65l332 -537l162 217l168 -127l-213 -276l113 -183l-219 -133l-74 117 q-76 -61 -164 -89t-201 -28q-127 0 -232.5 56.5t-168 159t-62.5 235.5zM279 457q0 -111 73.5 -179.5t177.5 -68.5q109 0 195 63l-281 449q-166 -100 -165 -264z" />
<glyph unicode="'" horiz-adv-x="423" d="M137 1004l82 462h244l-82 -462h-244z" />
<glyph unicode="(" horiz-adv-x="735" d="M111 502q0 311 142 592.5t402 502.5l172 -151q-223 -221 -335.5 -446.5t-112.5 -491.5q0 -195 43 -348.5t125 -296.5l-201 -142q-102 152 -168.5 351.5t-66.5 429.5z" />
<glyph unicode=")" horiz-adv-x="735" d="M-92 -127q221 221 333.5 446.5t112.5 491.5q0 195 -42 347.5t-124 297.5l199 141q102 -152 169 -350t67 -430q0 -313 -141.5 -593.5t-403.5 -502.5z" />
<glyph unicode="*" horiz-adv-x="950" d="M166 1126l72 181l208 -80l19 6l41 233h194l-43 -233l17 -6l213 71l53 -176l-238 -88l-10 -18l115 -199l-174 -106l-115 204h-16l-180 -204l-144 120l184 203l-4 19z" />
<glyph unicode="+" horiz-adv-x="1165" d="M61 436l41 238h351l61 348h238l-62 -348h348l-41 -238h-350l-61 -348h-238l62 348h-349z" />
<glyph unicode="," horiz-adv-x="555" d="M-63 -180l153 188q-86 57 -86 158q0 74 52.5 125t125.5 51q74 0 126 -51t52 -125q0 -70 -69 -148l-242 -290z" />
<glyph unicode="-" horiz-adv-x="923" d="M76 516l41 238h694l-43 -238h-692z" />
<glyph unicode="." horiz-adv-x="550" d="M-2 166q0 74 52 125t126 51t126 -51t52 -125t-52 -126t-126 -52t-126 52t-52 126z" />
<glyph unicode="/" horiz-adv-x="983" d="M-78 0l866 1466h271l-869 -1466h-268z" />
<glyph unicode="0" horiz-adv-x="1382" d="M80 584q0 225 90 419.5t252 312.5t364 118q150 0 262.5 -72t176 -210t63.5 -335q0 -236 -92 -430t-253 -307t-361 -113q-148 0 -261.5 72t-177 211t-63.5 334zM352 602q0 -180 70 -281.5t184 -101.5q115 0 208 77t147.5 210t54.5 293q0 182 -67.5 282.5t-188.5 100.5 q-115 0 -208 -83t-146.5 -217t-53.5 -280z" />
<glyph unicode="1" horiz-adv-x="888" d="M156 1104l456 297h209l-246 -1401h-268l180 1032l-215 -135z" />
<glyph unicode="2" horiz-adv-x="1138" d="M-23 0l41 244q80 68 271.5 230.5t331.5 283.5q96 84 134 135t38 125q0 72 -51.5 118t-131.5 46q-84 0 -141 -50.5t-84 -125.5l-240 104q57 141 179 232.5t317 91.5q125 0 222.5 -47.5t152.5 -132.5t55 -193q0 -137 -72.5 -244.5t-224.5 -236.5l-389 -332l4 -12h557 l-39 -236h-930z" />
<glyph unicode="3" horiz-adv-x="1169" d="M10 336l264 98q10 -98 72 -152.5t156 -54.5q104 0 173.5 57.5t69.5 151.5q0 84 -57 128t-164 44h-121l43 244h111q109 0 178.5 49t69.5 141q0 63 -48 104.5t-122 41.5q-82 0 -134 -46t-81 -118l-236 106q53 133 174 218.5t314 85.5q117 0 211 -46.5t147 -125t53 -175.5 q0 -123 -65.5 -208.5t-169.5 -128.5l-2 -17q76 -41 125 -114.5t49 -172.5q0 -143 -70.5 -251.5t-195.5 -168t-281 -59.5q-178 0 -306 97.5t-157 271.5z" />
<glyph unicode="4" horiz-adv-x="1280" d="M6 258l39 223l774 920h301l-157 -893h176l-45 -250h-174l-48 -258h-268l47 258h-645zM354 508h340l86 493h-16z" />
<glyph unicode="5" horiz-adv-x="1200" d="M25 346l254 94q12 -102 71.5 -163.5t153.5 -61.5q113 0 191.5 70.5t78.5 187.5q0 88 -54 146.5t-145 58.5q-61 0 -115 -25.5t-95 -68.5l-244 104l207 713h790l-41 -236h-567l-111 -327l15 -7q104 86 235 87q111 0 201 -50.5t141 -144.5t51 -221q0 -147 -68.5 -269 t-195.5 -194t-293 -72q-110 0 -209.5 43t-167 129t-83.5 207z" />
<glyph unicode="6" horiz-adv-x="1187" d="M37 406q0 102 32.5 188t88 160.5t151.5 183.5l447 504l182 -144l-352 -403l10 -10q49 16 96 16q92 0 175 -52t133.5 -146.5t50.5 -213.5q0 -147 -70 -266t-197 -187.5t-295 -68.5q-131 0 -234 59.5t-160.5 160t-57.5 219.5zM303 414q0 -88 62.5 -144.5t152.5 -56.5 q113 0 188.5 72.5t75.5 185.5q0 90 -60 148.5t-157 58.5q-113 0 -187.5 -76t-74.5 -188z" />
<glyph unicode="7" horiz-adv-x="1140" d="M51 111l754 1026l-4 12h-637l47 252h950l-45 -264l-866 -1170z" />
<glyph unicode="8" horiz-adv-x="1204" d="M25 354q0 127 75.5 228.5t206.5 152.5l2 17q-53 41 -88 103.5t-35 139.5q0 125 71 224.5t190.5 157t261.5 57.5q119 0 212 -45.5t145 -125t52 -178.5q0 -117 -61.5 -203.5t-163.5 -138.5l-2 -16q72 -43 117 -116.5t45 -174.5q0 -139 -75 -245.5t-204 -165t-289 -58.5 q-139 0 -243.5 52.5t-160.5 141.5t-56 193zM301 387q0 -80 56.5 -126t150.5 -46q115 0 194.5 61.5t79.5 167.5q0 74 -58 121t-151 47q-109 0 -190.5 -62.5t-81.5 -162.5zM446 1001q0 -70 52.5 -111.5t134.5 -41.5q100 0 163.5 53t63.5 135q0 70 -51 114t-133 44 q-98 0 -164 -51t-66 -142z" />
<glyph unicode="9" horiz-adv-x="1185" d="M125 911q0 147 69.5 266t196.5 188t295 69q131 0 234.5 -58.5t161 -160t57.5 -228.5q0 -100 -33 -184t-88 -158t-152 -182l-446 -504l-182 143l352 404l-10 10q-53 -16 -88 -16q-88 0 -173.5 52t-139.5 146.5t-54 212.5zM391 930q0 -90 61.5 -148.5t157.5 -58.5 q113 0 187.5 74.5t74.5 183.5q0 90 -62 148.5t-153 58.5q-113 0 -189.5 -73t-76.5 -185z" />
<glyph unicode=":" horiz-adv-x="550" d="M-2 166q0 74 52 125t126 51t126 -51t52 -125t-52 -126t-126 -52t-126 52t-52 126zM127 893q0 74 52 125t126 51t125 -51t51 -125t-51 -126t-125 -52t-126 52t-52 126z" />
<glyph unicode=";" horiz-adv-x="555" d="M-63 -168l153 188q-39 29 -62.5 65t-23.5 93q0 74 53.5 126t124.5 52q74 0 126 -52t52 -126q0 -37 -16 -70.5t-53 -76.5l-242 -289zM119 893q0 74 52 125t126 51t125 -51t51 -125t-51 -126t-125 -52t-126 52t-52 126z" />
<glyph unicode="&#x3c;" horiz-adv-x="1087" d="M63 455l37 213l920 385l-47 -273l-567 -223l-5 -16l490 -226l-45 -258z" />
<glyph unicode="=" horiz-adv-x="1189" d="M41 330l43 237h960l-43 -237h-960zM115 739l43 238h958l-41 -238h-960z" />
<glyph unicode="&#x3e;" horiz-adv-x="1087" d="M2 57l49 273l567 223l3 16l-488 226l45 258l783 -398l-39 -213z" />
<glyph unicode="?" horiz-adv-x="1052" d="M150 1178q45 135 169.5 228t301.5 93q117 0 209 -45t143 -125t51 -180q0 -113 -62.5 -199t-183.5 -182q-82 -68 -114.5 -112t-47.5 -117l-6 -35h-268l12 67q20 106 68.5 176t177.5 158q72 49 113 96.5t41 104.5q0 63 -45 102t-121 39q-82 0 -138.5 -47t-82.5 -121z M236 166q0 74 52 125t126 51t125 -51t51 -125t-51.5 -126t-124.5 -52q-74 0 -126 52t-52 126z" />
<glyph unicode="@" horiz-adv-x="1796" d="M72 537q0 258 120.5 456.5t331.5 309t475 110.5q193 0 356 -82t261 -233.5t98 -352.5q0 -147 -49 -273t-139 -200.5t-211 -74.5q-86 0 -144.5 38.5t-78.5 108.5q-49 -72 -126 -109.5t-165 -37.5q-96 0 -178 47t-131.5 131t-49.5 188q0 117 52.5 224.5t155 176t243.5 68.5 q78 0 134 -28.5t87 -77.5h16l15 78h201l-91 -504q-4 -25 -4 -37q0 -41 22.5 -64.5t61.5 -23.5q82 0 133.5 105.5t51.5 244.5q0 143 -65.5 257t-191.5 179.5t-296 65.5q-197 0 -353.5 -88t-245.5 -243t-89 -349q0 -150 70.5 -270.5t189 -189.5t256.5 -69q158 0 286 68 l64 -178q-160 -76 -361 -76q-211 0 -373.5 96.5t-250.5 257t-88 351.5zM651 580q0 -86 55.5 -135.5t133.5 -49.5q100 0 166.5 71t66.5 181q0 84 -51 135.5t-131 51.5q-106 0 -173 -75t-67 -179z" />
<glyph unicode="A" horiz-adv-x="1478" d="M-102 0l798 1466h324l293 -1466h-295l-64 350h-559l-184 -350h-313zM526 604h381l-67 369l-23 176h-16l-82 -176z" />
<glyph unicode="B" horiz-adv-x="1323" d="M33 0l260 1466h520q137 0 236.5 -49t150.5 -131t51 -180q0 -135 -73.5 -219t-184.5 -119l-2 -16q86 -39 140.5 -115t54.5 -182q0 -135 -74 -238.5t-201 -160t-284 -56.5h-594zM352 252h310q104 0 174.5 54t70.5 149q0 80 -51 128t-145 48h-291zM463 868h276 q106 0 171 49.5t65 139.5q0 72 -47 117t-125 45h-281z" />
<glyph unicode="C" horiz-adv-x="1536" d="M76 647q0 229 112.5 425t314.5 311.5t453 115.5q180 0 315.5 -66.5t217.5 -185.5l-219 -180q-63 84 -146.5 127t-203.5 43q-154 0 -284 -77t-207 -209t-77 -289q0 -129 53.5 -227.5t148.5 -152t216 -53.5q125 0 226.5 51.5t201.5 151.5l176 -199q-139 -141 -285.5 -203.5 t-345.5 -62.5q-190 0 -341.5 83t-238.5 236.5t-87 360.5z" />
<glyph unicode="D" horiz-adv-x="1511" d="M33 0l260 1466h465q213 0 363.5 -81.5t227 -226t76.5 -335.5q0 -223 -106.5 -411.5t-306 -300t-461.5 -111.5h-518zM354 262h209q172 0 305 68.5t206 189.5t73 273q0 201 -104.5 306t-313.5 105h-207z" />
<glyph unicode="E" horiz-adv-x="1214" d="M33 0l260 1466h930l-47 -262h-654l-61 -340h590l-47 -262h-590l-60 -340h654l-45 -262h-930z" />
<glyph unicode="F" horiz-adv-x="1173" d="M33 0l260 1466h930l-47 -262h-654l-63 -356h588l-46 -262h-589l-105 -586h-274z" />
<glyph unicode="G" horiz-adv-x="1691" d="M80 664q0 221 111.5 413.5t313.5 307t460 114.5q180 0 321 -63.5t227 -175.5l-219 -187q-53 74 -146 119t-212 45q-160 0 -292 -70.5t-210 -198.5t-78 -292q0 -135 58.5 -236.5t160 -156t228.5 -54.5q205 0 340 117q94 82 141 223h-453l41 236h717q2 -14 2 -37 q0 -184 -65.5 -336.5t-184.5 -259.5q-109 -98 -250 -151.5t-305 -53.5q-206 0 -367 88t-250 247t-89 362z" />
<glyph unicode="H" horiz-adv-x="1503" d="M33 0l260 1466h274l-104 -585h618l105 585h276l-260 -1466h-276l110 618h-618l-111 -618h-274z" />
<glyph unicode="I" horiz-adv-x="610" d="M33 0l260 1466h274l-260 -1466h-274z" />
<glyph unicode="J" horiz-adv-x="1165" d="M-10 322l264 102q10 -94 67.5 -144.5t143.5 -50.5q92 0 154.5 61.5t82.5 172.5l177 1003h276l-178 -1001q-45 -254 -188.5 -376t-354.5 -122q-112 0 -208.5 45t-160 126t-75.5 184z" />
<glyph unicode="K" horiz-adv-x="1398" d="M33 0l260 1466h274l-108 -620h16l637 620h344l-4 -16l-639 -610l434 -824l-2 -16h-323l-330 629l-207 -199l-78 -430h-274z" />
<glyph unicode="L" horiz-adv-x="1126" d="M33 0l260 1466h274l-213 -1204h621l-45 -262h-897z" />
<glyph unicode="M" horiz-adv-x="1843" d="M33 0l260 1466h348l209 -1030h16l570 1030h364l-260 -1466h-272l129 723l59 244h-16l-539 -967h-219l-205 967h-16l-27 -244l-129 -723h-272z" />
<glyph unicode="N" horiz-adv-x="1519" d="M33 0l260 1466h305l432 -983h17l32 283l125 700h273l-260 -1466h-273l-455 1038h-16l-33 -282l-135 -756h-272z" />
<glyph unicode="O" horiz-adv-x="1720" d="M76 649q0 229 109.5 424t308 310.5t450.5 115.5q201 0 358.5 -88t245.5 -243.5t88 -350.5q0 -229 -109.5 -423.5t-307 -310.5t-449.5 -116q-197 0 -355.5 85t-248.5 241t-90 356zM354 659q0 -125 57.5 -223t158 -152.5t223.5 -54.5q157 0 286 78t204 212t75 294 q0 123 -57.5 219t-158 150.5t-222.5 54.5q-158 0 -287 -78t-204 -210t-75 -290z" />
<glyph unicode="P" horiz-adv-x="1249" d="M33 0l260 1466h491q129 0 231.5 -53t160 -148.5t57.5 -220.5q0 -158 -73 -272.5t-202 -173.5t-294 -59h-261l-96 -539h-274zM451 801h247q117 0 187.5 57t70.5 166q0 82 -49 131t-137 49h-248z" />
<glyph unicode="Q" horiz-adv-x="1720" d="M76 649q0 229 109.5 424t308 310.5t450.5 115.5q201 0 358.5 -88t245.5 -243.5t88 -350.5q0 -203 -87 -380t-244 -296l77 -155l-243 -125l-78 153q-145 -47 -291 -47q-197 0 -355.5 85t-248.5 241t-90 356zM354 659q0 -125 57.5 -223t158 -152.5t223.5 -54.5q77 0 151 25 l-119 244l244 127l115 -234q82 80 128 189.5t46 232.5t-57.5 219t-158 150.5t-222.5 54.5q-158 0 -287 -78t-204 -210t-75 -290z" />
<glyph unicode="R" horiz-adv-x="1298" d="M33 0l260 1466h481q137 0 243.5 -54t165 -147.5t58.5 -205.5q0 -121 -51 -220.5t-139 -165t-195 -89.5l-6 -15l287 -553l-2 -16h-301l-283 551h-145l-99 -551h-274zM451 805h256q115 0 185.5 58.5t70.5 168.5q0 80 -54.5 129t-144.5 49h-242z" />
<glyph unicode="S" horiz-adv-x="1208" d="M2 383l264 106q10 -115 78 -187.5t182 -72.5q106 0 179 53.5t73 141.5q0 76 -53 127t-182 102l-72 29q-133 51 -217 146.5t-84 242.5q0 121 68.5 219.5t187.5 153.5t264 55q139 0 235.5 -48t146.5 -119.5t65 -145.5l-254 -96q-16 72 -70.5 113.5t-148.5 41.5 q-90 0 -154 -44t-64 -120q0 -66 48.5 -110.5t156.5 -83.5l84 -31q156 -59 239 -155.5t83 -245.5q0 -141 -71 -252t-197.5 -173.5t-292.5 -62.5q-189 0 -324 107.5t-170 308.5z" />
<glyph unicode="T" horiz-adv-x="1204" d="M133 1204l47 262h1094l-45 -262h-410l-215 -1204h-274l213 1204h-410z" />
<glyph unicode="U" horiz-adv-x="1421" d="M102 451q0 74 19 172l147 843h277l-158 -891q-8 -51 -8 -96q0 -117 62.5 -183.5t187.5 -66.5q137 0 228 91.5t118 246.5l158 899h276l-162 -915q-51 -291 -220 -437.5t-435 -146.5q-143 0 -255 60.5t-173.5 170t-61.5 253.5z" />
<glyph unicode="V" horiz-adv-x="1400" d="M156 1466h295l145 -884l20 -187h17l90 187l469 884h307l-792 -1466h-291z" />
<glyph unicode="W" horiz-adv-x="2015" d="M162 1466h307l53 -823l-2 -154h17l59 154l399 823h277l104 -823l6 -149h17l53 149l344 823h309l-630 -1466h-299l-101 885l-4 157h-16l-62 -157l-411 -885h-285z" />
<glyph unicode="X" horiz-adv-x="1421" d="M-104 0l639 772l-351 694h346l213 -473h17l373 473h356l-596 -718l375 -748h-338l-248 514h-16l-414 -514h-356z" />
<glyph unicode="Y" horiz-adv-x="1314" d="M156 1466h319l209 -485h16l369 485h342l-625 -784l-120 -682h-277l121 682z" />
<glyph unicode="Z" horiz-adv-x="1247" d="M-53 0l49 279l893 925h-699l48 262h1032l-49 -278l-887 -926h731l-47 -262h-1071z" />
<glyph unicode="[" horiz-adv-x="720" d="M-16 -254l327 1876h508l-39 -221h-245l-252 -1434h245l-39 -221h-505z" />
<glyph unicode="\" horiz-adv-x="983" d="M188 1466h254l349 -1466h-254z" />
<glyph unicode="]" horiz-adv-x="720" d="M-100 -254l39 221h245l252 1434h-246l39 221h506l-327 -1876h-508z" />
<glyph unicode="^" horiz-adv-x="1054" d="M43 840l502 626h223l281 -626h-271l-151 372h-17l-276 -372h-291z" />
<glyph unicode="_" horiz-adv-x="1021" d="M-168 -442l43 237h1018l-41 -237h-1020z" />
<glyph unicode="`" horiz-adv-x="907" d="M330 1483h303l39 -279h-209z" />
<glyph unicode="a" horiz-adv-x="1140" d="M31 293q0 176 119.5 276.5t345.5 100.5q150 0 276 -52l10 46l4 45q0 66 -60 108.5t-148 42.5q-78 0 -142.5 -29.5t-109.5 -85.5l-179 132q80 98 200 149t261 51q205 0 323 -98t118 -258q0 -41 -11 -107l-110 -614h-264l18 106h-16q-51 -68 -123 -103.5t-174 -35.5 q-95 0 -171.5 44t-121.5 119t-45 163zM301 313q0 -63 45 -100t115 -37q110 0 186 70.5t92 179.5q-57 25 -108 37t-123 12q-100 0 -153.5 -42t-53.5 -120z" />
<glyph unicode="b" horiz-adv-x="1290" d="M2 0l258 1466h266l-71 -401l-41 -147h16q39 63 123 111t195 48q121 0 221 -61.5t157.5 -173t57.5 -252.5q0 -178 -75 -320.5t-203 -222.5t-283 -80q-115 0 -202 45t-130 113h-17l-22 -125h-250zM336 473q0 -74 33.5 -133t90 -92t122.5 -33q92 0 167.5 44t119.5 122 t44 178q0 74 -34.5 135.5t-94 97t-129.5 35.5q-94 0 -166.5 -48t-112.5 -129t-40 -177z" />
<glyph unicode="c" horiz-adv-x="1169" d="M27 459q0 162 76.5 304t220 228t333.5 86q168 0 286 -81t161 -214l-250 -98q-27 68 -89.5 105.5t-143.5 37.5q-90 0 -165 -44t-117 -121.5t-42 -174.5q0 -121 71.5 -196.5t178.5 -75.5q94 0 161.5 40t104.5 112l227 -111q-78 -141 -213 -215t-303 -74q-143 0 -256.5 64.5 t-177 177.5t-63.5 250z" />
<glyph unicode="d" horiz-adv-x="1294" d="M27 449q0 176 73.5 319t207.5 226t308 83q109 0 195 -48t117 -111h16l8 147l70 401h268l-260 -1466h-250l21 125h-17q-49 -72 -132 -115t-201 -43q-121 0 -218.5 62.5t-151.5 173t-54 246.5zM295 473q0 -115 73.5 -186.5t182.5 -71.5q86 0 160.5 43t120 125t45.5 192 q0 111 -72 181.5t-180 70.5q-96 0 -171 -46t-117 -127t-42 -181z" />
<glyph unicode="e" horiz-adv-x="1204" d="M27 463q0 164 77.5 304t218 225t316.5 85q141 0 245.5 -61.5t160 -161.5t55.5 -217q0 -92 -27 -178h-784l-2 -23q2 -109 74.5 -170t175.5 -61q113 0 182 38t117 117l202 -106q-90 -143 -213 -215t-311 -72q-145 0 -256 66.5t-171 180.5t-60 249zM322 649h530v8 q0 82 -65.5 141.5t-172.5 59.5q-104 0 -183 -61.5t-109 -147.5z" />
<glyph unicode="f" horiz-adv-x="847" d="M66 815l40 229h187l10 58q29 186 147.5 283.5t309.5 97.5q47 0 93 -8.5t69 -20.5l-48 -256q-61 33 -129 33q-70 0 -117.5 -39t-58.5 -107l-8 -41h254l-39 -229h-256l-143 -815h-268l143 815h-186z" />
<glyph unicode="g" horiz-adv-x="1277" d="M-8 -172l262 98q20 -78 78.5 -121t146.5 -43q272 0 328 285l18 96h-18q-51 -74 -127 -108.5t-188 -34.5q-121 0 -217.5 59.5t-151.5 164t-55 235.5q0 166 69.5 307t200.5 226t303 85q104 0 185 -36.5t120 -106.5h17l20 110h256l-176 -995q-45 -262 -194.5 -393 t-417.5 -131q-189 0 -310 87t-149 216zM336 485q0 -115 67.5 -178t167.5 -63q91 0 165.5 44t118.5 121.5t44 172.5q0 115 -69.5 183.5t-170.5 68.5q-90 0 -163.5 -44.5t-116.5 -124t-43 -180.5z" />
<glyph unicode="h" d="M0 0l258 1466h268l-67 -370l-47 -183h16q51 78 135 121t195 43q156 0 246 -91t90 -232q0 -68 -13 -133l-110 -621h-269l109 600q8 49 8 80q0 61 -46 104t-122 43q-117 0 -189.5 -78.5t-99.5 -228.5l-94 -520h-268z" />
<glyph unicode="i" horiz-adv-x="565" d="M12 0l183 1044h268l-182 -1044h-269zM207 1331q0 72 51 122t123 50t122 -50t50 -122t-50 -122t-122 -50t-123 50.5t-51 121.5z" />
<glyph unicode="j" horiz-adv-x="567" d="M-266 -444l45 249q39 -22 99 -22h5q51 0 78 28.5t37 86.5l203 1146h268l-205 -1155q-37 -203 -130 -277.5t-255 -74.5q-82 1 -145 19zM211 1321q0 72 50 122t122 50t123 -50t51 -122t-51 -122t-123 -50t-122 50t-50 122z" />
<glyph unicode="k" horiz-adv-x="1148" d="M2 0l258 1466h268l-137 -788h15l421 366h347l-5 -16l-473 -397l308 -615l-3 -16h-305l-215 455l-153 -129l-58 -326h-268z" />
<glyph unicode="l" horiz-adv-x="532" d="M0 0l258 1466h268l-258 -1466h-268z" />
<glyph unicode="m" horiz-adv-x="1867" d="M0 0l184 1044h250l-22 -131h16q59 82 137 123t189 41t183.5 -50t100.5 -134q57 84 149.5 134t223.5 50q152 0 239 -86t87 -223q0 -47 -13 -109l-116 -659h-267l109 623q6 37 6 65q0 66 -39 102.5t-110 36.5q-104 0 -178 -85t-101 -232l-90 -510h-268l110 623q0 10 3 29.5 t3 35.5q0 66 -43 102.5t-114 36.5q-102 0 -173 -85t-98 -232l-90 -510h-268z" />
<glyph unicode="n" d="M0 0l184 1044h250l-22 -131h16q53 78 138 121t196 43q160 0 246 -90t86 -229q0 -51 -11 -127l-112 -631h-269l107 600q8 31 8 78q0 63 -45 106t-119 43q-119 0 -192.5 -78.5t-98.5 -216.5l-94 -532h-268z" />
<glyph unicode="o" horiz-adv-x="1245" d="M29 455q0 174 77.5 316t220 224t326.5 82q145 0 258 -64.5t174.5 -175t61.5 -247.5q0 -174 -78 -316.5t-220 -224.5t-327 -82q-145 0 -257.5 64.5t-174 175t-61.5 248.5zM299 483q0 -117 68.5 -192.5t185.5 -75.5q88 0 163 45t119 125t44 176q0 117 -70 191.5t-186 74.5 q-88 0 -162 -45t-118 -123.5t-44 -175.5z" />
<glyph unicode="p" horiz-adv-x="1284" d="M-68 -442l263 1486h251l-22 -126h16q47 74 131 116.5t203 42.5q121 0 218.5 -62.5t151.5 -173t54 -245.5q0 -176 -73.5 -319.5t-208 -226.5t-306.5 -83q-109 0 -195.5 47t-117.5 111h-16l-9 -148l-71 -419h-269zM348 469q0 -111 72 -182.5t180 -71.5q98 0 173 46t116 128 t41 182q0 115 -73 185.5t-181 70.5q-86 0 -162 -43t-121 -123.5t-45 -191.5z" />
<glyph unicode="q" horiz-adv-x="1284" d="M29 453q0 178 75.5 320t204.5 223t285 81q115 0 201 -45t129 -114h16l23 126h251l-262 -1486h-266l74 419l41 148h-17q-41 -66 -121.5 -112t-197.5 -46q-121 0 -220.5 61.5t-157.5 173t-58 251.5zM299 485q0 -113 75 -191.5t185 -78.5q96 0 169 48t112 130t39 178 q0 113 -74 184.5t-178 71.5q-88 0 -164 -43t-120 -120.5t-44 -178.5z" />
<glyph unicode="r" horiz-adv-x="874" d="M0 0l184 1044h250l-22 -126h16q47 74 135 115.5t195 41.5q76 0 125 -22l-47 -275q-31 20 -75 32.5t-87 12.5q-121 0 -206 -86t-110 -217l-90 -520h-268z" />
<glyph unicode="s" horiz-adv-x="1019" d="M-27 254l246 100q18 -74 80.5 -112.5t146.5 -38.5q70 0 118 29.5t48 80.5q0 90 -143 123l-102 25q-117 27 -199 102.5t-82 188.5q0 147 122 236t324 89q152 0 256.5 -61.5t151.5 -179.5l-246 -91q-18 55 -69.5 85t-114.5 30q-74 0 -116 -27.5t-42 -66.5q0 -33 33 -60.5 t84 -39.5l152 -37q123 -31 192.5 -110t69.5 -183q0 -166 -124 -267.5t-333 -101.5q-178 0 -298 81t-155 206z" />
<glyph unicode="t" horiz-adv-x="856" d="M70 815l41 229h182l51 295h268l-51 -295h254l-41 -229h-256l-76 -428q-4 -45 -4 -49q0 -47 29 -74.5t76 -27.5q41 0 72.5 11t72.5 34l-45 -263q-84 -34 -180 -34h-6q-135 0 -214 72.5t-79 211.5q0 39 10 107l76 440h-180z" />
<glyph unicode="u" d="M55 287q0 66 11 125l112 632h268l-106 -600q-8 -33 -8 -77q0 -66 45 -109t119 -43q119 0 192.5 79t97.5 218l95 532h268l-184 -1044h-250l22 131h-16q-53 -80 -138 -122t-196 -42q-160 0 -246 90t-86 230z" />
<glyph unicode="v" horiz-adv-x="1183" d="M72 1044h303l135 -679h14l387 679h310l-629 -1044h-268z" />
<glyph unicode="w" horiz-adv-x="1708" d="M68 1044h286l68 -677h14l328 677h283l94 -677h14l291 677h299l-508 -1044h-295l-92 676h-14l-330 -676h-287z" />
<glyph unicode="x" horiz-adv-x="1097" d="M-109 0l457 545l-268 499h315l142 -301h14l237 301h330l-450 -518l268 -526h-311l-144 311h-14l-246 -311h-330z" />
<glyph unicode="y" horiz-adv-x="1185" d="M39 -442l309 501l-260 985h299l158 -649h14l379 649h303l-909 -1486h-293z" />
<glyph unicode="z" horiz-adv-x="1034" d="M-55 0l39 219l639 598h-521l41 227h858l-38 -219l-644 -598h543l-39 -227h-878z" />
<glyph unicode="{" horiz-adv-x="690" d="M25 571l41 226q55 0 99 33.5t56 101.5l58 334q31 168 138 262t285 94h84l-38 -221h-35q-72 0 -117 -43t-59 -121l-54 -299q-18 -106 -62 -164.5t-126 -81.5l-2 -16q111 -33 110 -158q0 -33 -10 -88l-51 -299q-6 -27 -6 -47q0 -57 33.5 -87t91.5 -30h35l-39 -221h-72 q-139 0 -227 80t-88 213q0 39 8 82l55 315q2 14 2 35q0 100 -110 100z" />
<glyph unicode="|" horiz-adv-x="540" d="M-16 -246l327 1868h246l-328 -1868h-245z" />
<glyph unicode="}" horiz-adv-x="690" d="M-100 -254l39 221h34q72 0 117 43t60 121l53 299q18 106 62 164.5t126 81.5l2 16q-111 33 -110 158q0 33 10 88l51 299q6 29 6 47q0 57 -33.5 87t-91.5 30h-35l39 221h72q139 0 227 -80t88 -213q0 -39 -8 -82l-55 -315q-2 -14 -2 -35q0 -100 111 -100l-41 -226 q-55 0 -99.5 -33.5t-56.5 -101.5l-57 -334q-31 -168 -138.5 -262t-285.5 -94h-84z" />
<glyph unicode="~" horiz-adv-x="1134" d="M-2 489q23 150 111 233t243 83q68 0 117 -17.5t117 -52.5q51 -27 82.5 -39t68.5 -12q43 0 74 24.5t43 63.5h217q-27 -150 -113 -232.5t-241 -82.5q-66 0 -114 17.5t-116 51.5q-49 25 -83.5 38.5t-71.5 13.5q-45 0 -75 -25t-42 -64h-217z" />
<glyph unicode="&#xa1;" horiz-adv-x="550" d="M-37 -442l74 422l129 571h223l-76 -571l-73 -422h-277zM160 899q0 74 52 126t126 52t125 -52t51 -126t-51 -126t-125 -52t-126 52t-52 126z" />
<glyph unicode="&#xa2;" horiz-adv-x="1103" d="M45 631q0 154 66.5 282.5t186.5 210.5t275 101l31 176h184l-32 -178q121 -20 201.5 -93t119.5 -180l-233 -94q-12 47 -46 85t-83 52l-105 -592q117 16 199 152l195 -92q-80 -133 -183.5 -204t-249.5 -83l-30 -174h-185l33 180q-152 37 -248 159t-96 292zM293 659 q0 -88 36 -152.5t101 -92.5l102 581q-113 -31 -176 -124t-63 -212z" />
<glyph unicode="&#xa3;" horiz-adv-x="1101" d="M-61 0l36 217q92 37 161 110.5t79 166.5v2h-184l35 204h110q-6 16 -25.5 72.5t-29.5 111t-10 107.5q0 125 61 225.5t173 159t259 58.5q174 0 272.5 -87t127.5 -217l-252 -96q-27 162 -181 162q-88 0 -147 -61.5t-59 -153.5q0 -53 13 -102.5t40 -120.5l20 -58h277 l-35 -204h-217q-20 -137 -150 -244l9 -14h303q66 0 104.5 29.5t65.5 90.5l192 -90q-53 -135 -145 -201.5t-246 -66.5h-657z" />
<glyph unicode="&#xa4;" horiz-adv-x="1247" d="M123 307l119 117q-70 113 -70 242q0 133 70 241l-119 119l131 131l119 -117q113 74 250 74q139 0 251 -74l119 117l131 -131l-118 -119q68 -106 67 -241q0 -133 -67 -242l118 -117l-131 -133l-119 117q-113 -74 -251 -74q-137 0 -250 74l-119 -117zM393 666 q0 -100 66.5 -169t163.5 -69q96 0 162.5 68.5t66.5 169.5q0 100 -66.5 168.5t-162.5 68.5t-163 -68.5t-67 -168.5z" />
<glyph unicode="&#xa5;" horiz-adv-x="1294" d="M92 272l41 238h340l23 129h-340l43 238h186l-244 524h322l164 -387l37 -137h16l82 137l291 387h333l-423 -524h182l-43 -238h-330l-22 -129h329l-41 -238h-331l-50 -272h-274l47 272h-338z" />
<glyph unicode="&#xa6;" horiz-adv-x="540" d="M-14 -246l147 844h246l-148 -844h-245zM164 770l137 778h246l-137 -778h-246z" />
<glyph unicode="&#xa7;" horiz-adv-x="1146" d="M-57 -74l239 88q14 -111 79 -177t171 -66q92 0 156.5 47t64.5 127q0 78 -53 122t-182 89l-62 22q-123 43 -199.5 133t-76.5 203q0 104 57.5 190.5t155.5 141.5q-106 106 -107 244q0 119 66.5 212t180.5 145t249 52q178 0 280.5 -87t139.5 -224l-262 -96 q-14 70 -60.5 115.5t-132.5 45.5q-76 0 -132 -37.5t-56 -99.5q0 -61 47 -102t162 -82l59 -21q154 -55 230.5 -145t76.5 -219q0 -111 -53 -196t-139 -144q82 -92 82 -232q0 -121 -70 -225t-187.5 -164.5t-254.5 -60.5q-131 0 -235.5 52t-166 144.5t-67.5 204.5zM340 563 q0 -63 49 -110t146 -80q78 -27 124 -47q103 72 103 170q0 78 -52.5 130t-170.5 91l-54 18q-63 -27 -104 -72t-41 -100z" />
<glyph unicode="&#xa8;" horiz-adv-x="925" d="M225 1350q0 61 43 104t105 43q61 0 103 -43t42 -104t-42 -104.5t-103 -43.5q-62 0 -105 44t-43 104zM616 1350q0 61 43 104t103 43q63 0 105 -43t42 -104t-43 -104.5t-104 -43.5q-60 0 -103 44t-43 104z" />
<glyph unicode="&#xa9;" horiz-adv-x="1089" d="M74 1028q0 127 63.5 235.5t172 172t235.5 63.5t235.5 -63.5t172 -172t63.5 -235.5t-63.5 -235.5t-172 -172t-235.5 -63.5t-235.5 63.5t-172 172t-63.5 235.5zM172 1028q0 -100 51 -185t136 -136.5t186 -51.5q102 0 187 50.5t135.5 136.5t50.5 186q0 102 -50.5 187 t-135.5 135.5t-187 50.5q-100 0 -186.5 -50.5t-136.5 -135.5t-50 -187zM309 1028q0 102 70 173t174 71q57 0 98 -20.5t80 -59.5l-65 -59q-25 27 -48.5 38t-64.5 11q-59 0 -104.5 -44t-45.5 -110q0 -63 45.5 -108.5t104.5 -45.5q74 0 123 64l69 -55q-74 -98 -192 -99 q-102 0 -173 72t-71 172z" />
<glyph unicode="&#xaa;" horiz-adv-x="1013" d="M94 827q0 152 116 242t294 90q145 0 252 -51l4 27l2 28q0 66 -48 105t-130 39q-63 0 -119.5 -27t-93.5 -76l-160 111q61 88 166.5 136t232.5 48q180 0 285.5 -84t105.5 -229q0 -35 -6 -72l-94 -528h-239l16 94h-16q-113 -123 -267 -123q-131 0 -216 77t-85 193zM340 850 q0 -51 41 -79t102 -28q86 0 157 60.5t85 138.5q-86 45 -197 45q-78 0 -133 -34.5t-55 -102.5z" />
<glyph unicode="&#xab;" horiz-adv-x="1249" d="M47 555l516 471l137 -152l-370 -333l239 -322l-172 -135zM504 555l516 471l137 -152l-370 -333l239 -322l-172 -135z" />
<glyph unicode="&#xac;" horiz-adv-x="1216" d="M70 594l41 233h954l-107 -612h-235l68 379h-721z" />
<glyph unicode="&#xad;" horiz-adv-x="923" d="M76 516l41 238h694l-43 -238h-692z" />
<glyph unicode="&#xae;" horiz-adv-x="1089" d="M74 1028q0 127 63.5 235.5t172 172t235.5 63.5t235.5 -63.5t172 -172t63.5 -235.5t-63.5 -235.5t-172 -172t-235.5 -63.5t-235.5 63.5t-172 172t-63.5 235.5zM172 1028q0 -100 51 -185t136 -136.5t186 -51.5q102 0 187 50.5t135.5 136.5t50.5 186q0 102 -50.5 187 t-135.5 135.5t-187 50.5q-100 0 -186.5 -50.5t-136.5 -135.5t-50 -187zM387 797v463h197q59 0 104 -43t45 -105q0 -47 -29.5 -85t-72.5 -50l-4 -4l123 -172v-4h-107l-113 172h-49v-172h-94zM481 1055h94q27 0 45.5 16t18.5 41q0 23 -17.5 40t-43.5 17h-97v-114z" />
<glyph unicode="&#xaf;" horiz-adv-x="851" d="M213 1247l37 205h606l-37 -205h-606z" />
<glyph unicode="&#xb0;" horiz-adv-x="665" d="M137 1139q0 129 85 212t214 83q100 0 172 -65.5t72 -168.5q0 -129 -85 -212t-214 -83q-100 0 -172 65.5t-72 168.5zM303 1157q0 -43 26.5 -68.5t67.5 -25.5q49 0 83 35t34 84q0 41 -25.5 67.5t-66.5 26.5q-49 0 -84 -34t-35 -85z" />
<glyph unicode="&#xb1;" horiz-adv-x="1165" d="M-14 0l41 238h934l-41 -238h-934zM98 647l39 221h350l50 289h237l-49 -289h348l-39 -221h-348l-53 -289h-238l54 289h-351z" />
<glyph unicode="&#xb2;" horiz-adv-x="649" d="M47 717l25 129l307 264q45 35 73.5 67.5t28.5 69.5q0 33 -22.5 53.5t-59.5 20.5q-80 0 -110 -98l-154 59q29 94 105.5 147.5t187.5 53.5t177.5 -58.5t66.5 -148.5q0 -72 -36 -122t-120 -124q-25 -18 -90 -76q-20 -18 -49 -42.5t-41 -32.5h276l-30 -162h-535z" />
<glyph unicode="&#xb3;" horiz-adv-x="684" d="M74 907l157 58q31 -106 125 -107q45 0 80 26.5t35 69.5q0 39 -29.5 59.5t-81.5 20.5h-71l26 144h70q49 0 83 21.5t34 60.5q0 29 -23.5 47t-54.5 18q-78 0 -115 -74l-147 66q35 76 108.5 121t180.5 45q102 0 168.5 -54.5t66.5 -136.5q0 -61 -34 -106t-91 -74 q41 -23 65.5 -62.5t24.5 -86.5q0 -115 -87 -189t-224 -74q-100 0 -174 54.5t-92 152.5z" />
<glyph unicode="&#xb4;" horiz-adv-x="907" d="M389 1204l135 279h316l-234 -279h-217z" />
<glyph unicode="&#xb5;" d="M-84 -442l262 1486h268l-110 -616q-4 -37 -4 -61q0 -68 45 -110t119 -42q119 0 192.5 79t97.5 218l95 532h268l-184 -1044h-250l22 131h-16q-55 -82 -128 -123t-179 -41q-41 0 -85 14.5t-69 34.5h-16l-4 -133l-58 -325h-266z" />
<glyph unicode="&#xb6;" horiz-adv-x="1316" d="M49 1036q0 129 62.5 227.5t168 150.5t228.5 52h645v-1908h-225v1689h-144v-1689h-225v1048h-51q-123 0 -228.5 52.5t-168 150.5t-62.5 227z" />
<glyph unicode="&#xb7;" horiz-adv-x="436" d="M33 664q0 74 52 126t126 52t125 -52.5t51 -125.5q0 -74 -51 -126.5t-125 -52.5t-126 52.5t-52 126.5z" />
<glyph unicode="&#xb8;" horiz-adv-x="841" d="M-6 -350l139 55q4 -25 23.5 -41t46.5 -16q31 0 52 19.5t21 51.5q0 29 -17 46.5t-44 17.5q-29 0 -57 -29l-113 58l105 188h139l-60 -96q14 2 37 2q72 0 117 -50.5t45 -125.5q0 -98 -66.5 -156.5t-168.5 -58.5q-70 0 -127.5 38.5t-71.5 96.5z" />
<glyph unicode="&#xb9;" horiz-adv-x="557" d="M143 1286l252 180h166l-133 -749h-182l92 514l-111 -78z" />
<glyph unicode="&#xba;" horiz-adv-x="1095" d="M113 967q0 139 69.5 261t194.5 196.5t282 74.5q188 0 303 -109.5t115 -297.5q0 -143 -71.5 -266.5t-196.5 -196t-279 -72.5q-186 0 -301.5 110.5t-115.5 299.5zM356 987q0 -92 54.5 -149.5t140.5 -57.5q74 0 138.5 38t103 104.5t38.5 146.5q0 92 -55 149.5t-141 57.5 q-74 0 -138.5 -39t-102.5 -105.5t-38 -144.5z" />
<glyph unicode="&#xbb;" horiz-adv-x="1249" d="M25 236l368 333l-237 322l170 135l352 -471l-518 -471zM482 236l368 333l-237 322l170 135l352 -471l-518 -471z" />
<glyph unicode="&#xbc;" horiz-adv-x="1554" d="M135 80l1204 1417l143 -111l-1202 -1419zM192 1286l252 180h166l-133 -749h-182l92 514l-111 -78zM723 133l24 131l434 486h181l-82 -465h96l-27 -152h-96l-24 -133h-177l25 133h-354zM940 285h164l36 213h-16z" />
<glyph unicode="&#xbd;" horiz-adv-x="1654" d="M125 80l1204 1417l143 -111l-1202 -1419zM192 1286l252 180h166l-133 -749h-182l92 514l-111 -78zM891 0l25 129l307 264q45 35 73.5 68t28.5 69q0 33 -22.5 53.5t-59.5 20.5q-80 0 -110 -98l-154 59q29 94 106 147.5t187 53.5q111 0 177.5 -58.5t66.5 -148.5 q0 -72 -36 -122t-120 -124q-25 -18 -90 -75q-20 -18 -49 -43t-41 -33h276l-30 -162h-535z" />
<glyph unicode="&#xbe;" horiz-adv-x="1724" d="M137 907l157 58q31 -106 125 -107q45 0 80 26.5t35 69.5q0 39 -29.5 59.5t-81.5 20.5h-71l26 144h70q49 0 83 21.5t34 60.5q0 29 -23.5 47t-54.5 18q-78 0 -115 -74l-147 66q35 76 108.5 121t180.5 45q102 0 168.5 -54.5t66.5 -136.5q0 -61 -34 -106t-91 -74 q41 -23 65.5 -62.5t24.5 -86.5q0 -115 -87 -189t-224 -74q-100 0 -174 54.5t-92 152.5zM264 80l1204 1417l143 -111l-1202 -1419zM883 133l24 131l434 486h181l-82 -465h96l-27 -152h-96l-24 -133h-177l25 133h-354zM1100 285h164l36 213h-16z" />
<glyph unicode="&#xbf;" horiz-adv-x="1030" d="M-33 -125q0 113 62.5 199t181.5 182q84 66 115.5 110t46.5 119l12 66h270l-20 -98q-18 -104 -67.5 -175t-178.5 -159q-72 -49 -112.5 -96.5t-40.5 -104.5q0 -63 45 -102t120 -39q82 0 138.5 47t83.5 121l219 -99q-45 -137 -171 -229t-302 -92q-115 0 -207 45t-143.5 125 t-51.5 180zM406 899q0 74 52 126t126 52t126 -52t52 -126t-52.5 -126t-125.5 -52q-74 0 -126 52t-52 126z" />
<glyph unicode="&#xc0;" horiz-adv-x="1478" d="M-102 0l798 1466h324l293 -1466h-295l-64 350h-559l-184 -350h-313zM526 604h381l-67 369l-23 176h-16l-82 -176zM620 1860h303l39 -279h-209z" />
<glyph unicode="&#xc1;" horiz-adv-x="1478" d="M-102 0l798 1466h324l293 -1466h-295l-64 350h-559l-184 -350h-313zM526 604h381l-67 369l-23 176h-16l-82 -176zM756 1581l135 279h315l-233 -279h-217z" />
<glyph unicode="&#xc2;" horiz-adv-x="1478" d="M-102 0l798 1466h324l293 -1466h-295l-64 350h-559l-184 -350h-313zM514 1593l2 17l270 258h244l186 -258l-2 -17h-248l-63 121h-25l-100 -121h-264zM526 604h381l-67 369l-23 176h-16l-82 -176z" />
<glyph unicode="&#xc3;" horiz-adv-x="1478" d="M-102 0l798 1466h324l293 -1466h-295l-64 350h-559l-184 -350h-313zM506 1608q16 129 86 195.5t176 66.5q41 0 75 -13.5t83 -39.5q61 -35 92 -35q53 0 68 59h188q-16 -129 -85.5 -195.5t-176.5 -66.5q-41 0 -74.5 13.5t-83.5 39.5q-61 35 -92 35q-53 0 -67 -59h-189z M526 604h381l-67 369l-23 176h-16l-82 -176z" />
<glyph unicode="&#xc4;" horiz-adv-x="1478" d="M-102 0l798 1466h324l293 -1466h-295l-64 350h-559l-184 -350h-313zM526 604h381l-67 369l-23 176h-16l-82 -176zM546 1726q0 61 43 104.5t105 43.5q61 0 103 -43t42 -105q0 -61 -42 -104t-103 -43q-62 0 -105 44t-43 103zM938 1726q0 61 43 104.5t102 43.5q63 0 105 -43 t42 -105q0 -61 -43 -104t-104 -43q-59 0 -102 44t-43 103z" />
<glyph unicode="&#xc5;" horiz-adv-x="1478" d="M-102 0l757 1393q-51 68 -51 155q0 74 36 134.5t96.5 96.5t133.5 36q72 0 133.5 -36t97.5 -97.5t36 -133.5q0 -59 -25 -111.5t-70 -90.5l271 -1346h-295l-64 350h-559l-184 -350h-313zM526 604h381l-67 369l-23 176h-16l-82 -176zM788 1548q0 -33 25 -57.5t57 -24.5 q35 0 58.5 25t23.5 57q0 35 -23.5 58.5t-58.5 23.5q-33 0 -57.5 -23.5t-24.5 -58.5z" />
<glyph unicode="&#xc6;" horiz-adv-x="2072" d="M-127 0l1110 1466h1098l-45 -262h-656l-59 -340h588l-47 -262h-588l-60 -340h654l-47 -262h-930l63 354h-475l-262 -354h-344zM666 616h333l107 588h-21l-88 -143z" />
<glyph unicode="&#xc7;" horiz-adv-x="1536" d="M76 647q0 229 112.5 425t314.5 311.5t453 115.5q180 0 315.5 -66.5t217.5 -185.5l-219 -180q-63 84 -146.5 127t-203.5 43q-154 0 -284 -77t-207 -209t-77 -289q0 -129 53.5 -227.5t148.5 -152t216 -53.5q125 0 226.5 51.5t201.5 151.5l176 -199q-139 -141 -285.5 -203.5 t-345.5 -62.5h-6l-39 -63q14 2 37 2q72 0 117 -50.5t45 -125.5q0 -98 -66.5 -156.5t-168.5 -58.5q-70 0 -127.5 38.5t-71.5 96.5l139 55q4 -25 23.5 -41t46.5 -16q31 0 52 19.5t21 51.5q0 29 -17 46.5t-44 17.5q-29 0 -57 -29l-113 58l92 168q-156 29 -275.5 116.5t-187 229 t-67.5 321.5z" />
<glyph unicode="&#xc8;" horiz-adv-x="1214" d="M33 0l260 1466h930l-47 -262h-654l-61 -340h590l-47 -262h-590l-60 -340h654l-45 -262h-930zM526 1860h303l39 -279h-209z" />
<glyph unicode="&#xc9;" horiz-adv-x="1214" d="M33 0l260 1466h930l-47 -262h-654l-61 -340h590l-47 -262h-590l-60 -340h654l-45 -262h-930zM662 1581l135 279h315l-233 -279h-217z" />
<glyph unicode="&#xca;" horiz-adv-x="1214" d="M33 0l260 1466h930l-47 -262h-654l-61 -340h590l-47 -262h-590l-60 -340h654l-45 -262h-930zM420 1593l2 17l270 258h244l186 -258l-2 -17h-248l-63 121h-25l-100 -121h-264z" />
<glyph unicode="&#xcb;" horiz-adv-x="1214" d="M33 0l260 1466h930l-47 -262h-654l-61 -340h590l-47 -262h-590l-60 -340h654l-45 -262h-930zM452 1726q0 61 43 104.5t105 43.5q61 0 103 -43t42 -105q0 -61 -42 -104t-103 -43q-62 0 -105 44t-43 103zM844 1726q0 61 43 104.5t102 43.5q63 0 105 -43t42 -105 q0 -61 -43 -104t-104 -43q-59 0 -102 44t-43 103z" />
<glyph unicode="&#xcc;" horiz-adv-x="610" d="M33 0l260 1466h274l-260 -1466h-274zM209 1860h303l39 -279h-209z" />
<glyph unicode="&#xcd;" horiz-adv-x="610" d="M33 0l260 1466h274l-260 -1466h-274zM344 1581l135 279h315l-233 -279h-217z" />
<glyph unicode="&#xce;" horiz-adv-x="610" d="M33 0l260 1466h274l-260 -1466h-274zM103 1593l2 17l270 258h244l186 -258l-2 -17h-248l-63 121h-25l-100 -121h-264z" />
<glyph unicode="&#xcf;" horiz-adv-x="612" d="M33 0l260 1466h274l-260 -1466h-274zM152 1726q0 59 42 100.5t99 41.5q59 0 100 -41t41 -101q0 -57 -41 -99t-100 -42q-57 0 -99 42t-42 99zM508 1726q0 59 41 100.5t100 41.5t100.5 -41t41.5 -101q0 -57 -42 -99t-100 -42q-57 0 -99 42t-42 99z" />
<glyph unicode="&#xd0;" horiz-adv-x="1597" d="M90 618l41 226h154l112 622h465q213 0 363.5 -81.5t227.5 -226t77 -335.5q0 -223 -106.5 -411.5t-306 -300t-462.5 -111.5h-518l109 618h-156zM459 262h209q172 0 305 68.5t205.5 189.5t72.5 273q0 201 -104.5 306t-312.5 105h-207l-64 -360h377l-41 -226h-377z" />
<glyph unicode="&#xd1;" horiz-adv-x="1519" d="M33 0l260 1466h305l432 -983h17l32 283l125 700h273l-260 -1466h-273l-455 1038h-16l-33 -282l-135 -756h-272zM522 1608q16 129 86 195.5t176 66.5q41 0 75 -13.5t83 -39.5q61 -35 92 -35q53 0 68 59h188q-16 -129 -85.5 -195.5t-176.5 -66.5q-41 0 -74.5 13.5 t-83.5 39.5q-61 35 -92 35q-53 0 -67 -59h-189z" />
<glyph unicode="&#xd2;" horiz-adv-x="1720" d="M76 649q0 229 109.5 424t308 310.5t450.5 115.5q201 0 358.5 -88t245.5 -243.5t88 -350.5q0 -229 -109.5 -423.5t-307 -310.5t-449.5 -116q-197 0 -355.5 85t-248.5 241t-90 356zM354 659q0 -125 57.5 -223t158 -152.5t223.5 -54.5q157 0 286 78t204 212t75 294 q0 123 -57.5 219t-158 150.5t-222.5 54.5q-158 0 -287 -78t-204 -210t-75 -290zM731 1860h303l39 -279h-209z" />
<glyph unicode="&#xd3;" horiz-adv-x="1720" d="M76 649q0 229 109.5 424t308 310.5t450.5 115.5q201 0 358.5 -88t245.5 -243.5t88 -350.5q0 -229 -109.5 -423.5t-307 -310.5t-449.5 -116q-197 0 -355.5 85t-248.5 241t-90 356zM354 659q0 -125 57.5 -223t158 -152.5t223.5 -54.5q157 0 286 78t204 212t75 294 q0 123 -57.5 219t-158 150.5t-222.5 54.5q-158 0 -287 -78t-204 -210t-75 -290zM867 1581l135 279h315l-233 -279h-217z" />
<glyph unicode="&#xd4;" horiz-adv-x="1720" d="M76 649q0 229 109.5 424t308 310.5t450.5 115.5q201 0 358.5 -88t245.5 -243.5t88 -350.5q0 -229 -109.5 -423.5t-307 -310.5t-449.5 -116q-197 0 -355.5 85t-248.5 241t-90 356zM354 659q0 -125 57.5 -223t158 -152.5t223.5 -54.5q157 0 286 78t204 212t75 294 q0 123 -57.5 219t-158 150.5t-222.5 54.5q-158 0 -287 -78t-204 -210t-75 -290zM625 1593l2 17l270 258h244l186 -258l-2 -17h-248l-63 121h-25l-100 -121h-264z" />
<glyph unicode="&#xd5;" horiz-adv-x="1720" d="M76 649q0 229 109.5 424t308 310.5t450.5 115.5q201 0 358.5 -88t245.5 -243.5t88 -350.5q0 -229 -109.5 -423.5t-307 -310.5t-449.5 -116q-197 0 -355.5 85t-248.5 241t-90 356zM354 659q0 -125 57.5 -223t158 -152.5t223.5 -54.5q157 0 286 78t204 212t75 294 q0 123 -57.5 219t-158 150.5t-222.5 54.5q-158 0 -287 -78t-204 -210t-75 -290zM616 1608q16 129 86 195.5t176 66.5q41 0 75 -13.5t83 -39.5q61 -35 92 -35q53 0 68 59h188q-16 -129 -85.5 -195.5t-176.5 -66.5q-41 0 -74.5 13.5t-83.5 39.5q-61 35 -92 35q-53 0 -67 -59 h-189z" />
<glyph unicode="&#xd6;" horiz-adv-x="1720" d="M76 649q0 229 109.5 424t308 310.5t450.5 115.5q201 0 358.5 -88t245.5 -243.5t88 -350.5q0 -229 -109.5 -423.5t-307 -310.5t-449.5 -116q-197 0 -355.5 85t-248.5 241t-90 356zM354 659q0 -125 57.5 -223t158 -152.5t223.5 -54.5q157 0 286 78t204 212t75 294 q0 123 -57.5 219t-158 150.5t-222.5 54.5q-158 0 -287 -78t-204 -210t-75 -290zM657 1726q0 61 43 104.5t105 43.5q61 0 103 -43t42 -105q0 -61 -42 -104t-103 -43q-62 0 -105 44t-43 103zM1049 1726q0 61 43 104.5t102 43.5q63 0 105 -43t42 -105q0 -61 -43 -104t-104 -43 q-59 0 -102 44t-43 103z" />
<glyph unicode="&#xd7;" horiz-adv-x="1251" d="M31 240l393 323l-272 316l186 159l276 -319l398 325l145 -174l-393 -323l272 -316l-186 -159l-277 319l-397 -325z" />
<glyph unicode="&#xd8;" horiz-adv-x="1720" d="M76 649q0 229 109.5 424t308 310.5t450.5 115.5q172 0 326 -72l114 144l172 -139l-106 -134q90 -92 138 -214.5t48 -266.5q0 -229 -109.5 -423.5t-307 -310.5t-449.5 -116q-180 0 -328 72l-116 -145l-174 137l108 137q-88 92 -136 214t-48 267zM354 659q0 -160 88 -266 l650 811q-86 33 -172 33q-158 0 -287 -78t-204 -210t-75 -290zM621 262q82 -33 172 -33q157 0 286 78t204 212t75 294q0 152 -88 260z" />
<glyph unicode="&#xd9;" horiz-adv-x="1421" d="M102 451q0 74 19 172l147 843h277l-158 -891q-8 -51 -8 -96q0 -117 62.5 -183.5t187.5 -66.5q137 0 228 91.5t118 246.5l158 899h276l-162 -915q-51 -291 -220 -437.5t-435 -146.5q-143 0 -255 60.5t-173.5 170t-61.5 253.5zM602 1860h303l39 -279h-209z" />
<glyph unicode="&#xda;" horiz-adv-x="1421" d="M102 451q0 74 19 172l147 843h277l-158 -891q-8 -51 -8 -96q0 -117 62.5 -183.5t187.5 -66.5q137 0 228 91.5t118 246.5l158 899h276l-162 -915q-51 -291 -220 -437.5t-435 -146.5q-143 0 -255 60.5t-173.5 170t-61.5 253.5zM738 1581l135 279h315l-233 -279h-217z" />
<glyph unicode="&#xdb;" horiz-adv-x="1421" d="M102 451q0 74 19 172l147 843h277l-158 -891q-8 -51 -8 -96q0 -117 62.5 -183.5t187.5 -66.5q137 0 228 91.5t118 246.5l158 899h276l-162 -915q-51 -291 -220 -437.5t-435 -146.5q-143 0 -255 60.5t-173.5 170t-61.5 253.5zM496 1593l2 17l270 258h244l186 -258l-2 -17 h-248l-63 121h-25l-100 -121h-264z" />
<glyph unicode="&#xdc;" horiz-adv-x="1421" d="M102 451q0 74 19 172l147 843h277l-158 -891q-8 -51 -8 -96q0 -117 62.5 -183.5t187.5 -66.5q137 0 228 91.5t118 246.5l158 899h276l-162 -915q-51 -291 -220 -437.5t-435 -146.5q-143 0 -255 60.5t-173.5 170t-61.5 253.5zM528 1726q0 61 43 104.5t105 43.5 q61 0 103 -43t42 -105q0 -61 -42 -104t-103 -43q-62 0 -105 44t-43 103zM920 1726q0 61 43 104.5t102 43.5q63 0 105 -43t42 -105q0 -61 -43 -104t-104 -43q-59 0 -102 44t-43 103z" />
<glyph unicode="&#xdd;" horiz-adv-x="1314" d="M156 1466h319l209 -485h16l369 485h342l-625 -784l-120 -682h-277l121 682zM668 1581l135 279h315l-233 -279h-217z" />
<glyph unicode="&#xde;" horiz-adv-x="1210" d="M12 0l260 1466h277l-41 -223h217q129 0 231.5 -53t161 -149.5t58.5 -219.5q0 -158 -73 -271.5t-202 -173t-297 -59.5h-260l-55 -317h-277zM391 580h250q115 0 186.5 56t71.5 165q0 82 -49 131t-139 49h-248z" />
<glyph unicode="&#xdf;" horiz-adv-x="1198" d="M12 0l183 1038q37 209 170 335t360 126q121 0 213 -49t141 -132t49 -179q0 -127 -63.5 -212t-161.5 -126l-2 -17q82 -39 130 -119.5t48 -195.5q0 -141 -69.5 -252t-192.5 -172t-278 -61q-86 0 -138 8l43 244q43 -8 105 -9q111 0 186.5 64.5t75.5 175.5q0 90 -56.5 143.5 t-160.5 53.5h-51l41 235h41q100 0 168.5 52.5t68.5 142.5q0 72 -47 114.5t-127 42.5q-90 0 -148.5 -60.5t-76.5 -156.5l-182 -1034h-269z" />
<glyph unicode="&#xe0;" horiz-adv-x="1140" d="M31 293q0 176 119.5 276.5t345.5 100.5q150 0 276 -52l10 46l4 45q0 66 -60 108.5t-148 42.5q-78 0 -142.5 -29.5t-109.5 -85.5l-179 132q80 98 200 149t261 51q205 0 323 -98t118 -258q0 -41 -11 -107l-110 -614h-264l18 106h-16q-51 -68 -123 -103.5t-174 -35.5 q-95 0 -171.5 44t-121.5 119t-45 163zM301 313q0 -63 45 -100t115 -37q110 0 186 70.5t92 179.5q-57 25 -108 37t-123 12q-100 0 -153.5 -42t-53.5 -120zM414 1524h303l37 -279h-209z" />
<glyph unicode="&#xe1;" horiz-adv-x="1140" d="M31 293q0 176 119.5 276.5t345.5 100.5q150 0 276 -52l10 46l4 45q0 66 -60 108.5t-148 42.5q-78 0 -142.5 -29.5t-109.5 -85.5l-179 132q80 98 200 149t261 51q205 0 323 -98t118 -258q0 -41 -11 -107l-110 -614h-264l18 106h-16q-51 -68 -123 -103.5t-174 -35.5 q-95 0 -171.5 44t-121.5 119t-45 163zM301 313q0 -63 45 -100t115 -37q110 0 186 70.5t92 179.5q-57 25 -108 37t-123 12q-100 0 -153.5 -42t-53.5 -120zM539 1245l135 279h314l-232 -279h-217z" />
<glyph unicode="&#xe2;" horiz-adv-x="1140" d="M31 293q0 176 119.5 276.5t345.5 100.5q150 0 276 -52l10 46l4 45q0 66 -60 108.5t-148 42.5q-78 0 -142.5 -29.5t-109.5 -85.5l-179 132q80 98 200 149t261 51q205 0 323 -98t118 -258q0 -41 -11 -107l-110 -614h-264l18 106h-16q-51 -68 -123 -103.5t-174 -35.5 q-95 0 -171.5 44t-121.5 119t-45 163zM291 1233l4 16l270 258h244l186 -258l-4 -16h-245l-66 119h-25l-98 -119h-266zM301 313q0 -63 45 -100t115 -37q110 0 186 70.5t92 179.5q-57 25 -108 37t-123 12q-100 0 -153.5 -42t-53.5 -120z" />
<glyph unicode="&#xe3;" horiz-adv-x="1140" d="M31 293q0 176 119.5 276.5t345.5 100.5q150 0 276 -52l10 46l4 45q0 66 -60 108.5t-148 42.5q-78 0 -142.5 -29.5t-109.5 -85.5l-179 132q80 98 200 149t261 51q205 0 323 -98t118 -258q0 -41 -11 -107l-110 -614h-264l18 106h-16q-51 -68 -123 -103.5t-174 -35.5 q-95 0 -171.5 44t-121.5 119t-45 163zM291 1272q16 127 84.5 193.5t175.5 66.5q43 0 77.5 -14.5t79.5 -38.5q25 -14 50.5 -24.5t44.5 -10.5q53 0 65 59h189q-16 -127 -85 -193.5t-176 -66.5q-43 0 -77.5 13.5t-77.5 37.5q-63 37 -96 37q-51 0 -66 -59h-188zM301 313 q0 -63 45 -100t115 -37q110 0 186 70.5t92 179.5q-57 25 -108 37t-123 12q-100 0 -153.5 -42t-53.5 -120z" />
<glyph unicode="&#xe4;" horiz-adv-x="1140" d="M31 293q0 176 119.5 276.5t345.5 100.5q150 0 276 -52l10 46l4 45q0 66 -60 108.5t-148 42.5q-78 0 -142.5 -29.5t-109.5 -85.5l-179 132q80 98 200 149t261 51q205 0 323 -98t118 -258q0 -41 -11 -107l-110 -614h-264l18 106h-16q-51 -68 -123 -103.5t-174 -35.5 q-95 0 -171.5 44t-121.5 119t-45 163zM301 313q0 -63 45 -100t115 -37q110 0 186 70.5t92 179.5q-57 25 -108 37t-123 12q-100 0 -153.5 -42t-53.5 -120zM332 1391q0 61 43 103t102 42q63 0 105.5 -42t42.5 -103t-42 -104.5t-106 -43.5q-59 0 -102 43t-43 105zM721 1391 q0 61 43 103t104 42t104.5 -42t43.5 -103t-43 -104.5t-105 -43.5q-59 0 -103 43t-44 105z" />
<glyph unicode="&#xe5;" horiz-adv-x="1140" d="M31 293q0 176 119.5 276.5t345.5 100.5q150 0 276 -52l10 46l4 45q0 66 -60 108.5t-148 42.5q-78 0 -142.5 -29.5t-109.5 -85.5l-179 132q80 98 200 149t261 51q205 0 323 -98t118 -258q0 -41 -11 -107l-110 -614h-264l18 106h-16q-51 -68 -123 -103.5t-174 -35.5 q-95 0 -171.5 44t-121.5 119t-45 163zM301 313q0 -63 45 -100t115 -37q110 0 186 70.5t92 179.5q-57 25 -108 37t-123 12q-100 0 -153.5 -42t-53.5 -120zM457 1417q0 92 64.5 156.5t156.5 64.5t156.5 -64.5t64.5 -156.5t-64.5 -156.5t-156.5 -64.5t-156.5 64.5t-64.5 156.5z M606 1417q0 -29 21.5 -50t50.5 -21q28 0 48.5 21.5t20.5 49.5q0 29 -21.5 49.5t-47.5 20.5q-29 0 -50.5 -20.5t-21.5 -49.5z" />
<glyph unicode="&#xe6;" horiz-adv-x="1918" d="M31 293q0 186 129 281.5t350 95.5q82 0 153.5 -15.5t110.5 -31.5l10 45q4 29 4 34q0 74 -57 116t-151 42q-156 0 -226 -106l-194 104q139 219 448 219q129 0 222.5 -44t142.5 -118q150 162 387 162q139 0 243.5 -61.5t159 -162.5t54.5 -216q0 -94 -27 -178h-784 q-2 -6 -2 -23q4 -109 75.5 -170t175.5 -61q111 0 180.5 38t116.5 117l203 -106q-90 -143 -213 -215t-307 -72q-137 0 -237.5 60.5t-161.5 158.5q-92 -117 -209 -168t-260 -51q-93 0 -169.5 44t-121.5 119t-45 163zM301 313q0 -63 45 -100t115 -37q110 0 186 70.5t92 179.5 q-102 49 -231 49q-100 0 -153.5 -42t-53.5 -120zM1036 649h531v8q0 84 -67.5 142.5t-168.5 58.5q-106 0 -185 -61.5t-110 -147.5z" />
<glyph unicode="&#xe7;" horiz-adv-x="1169" d="M27 459q0 162 76.5 304t220 228t333.5 86q168 0 286 -81t161 -214l-250 -98q-27 68 -89.5 105.5t-143.5 37.5q-90 0 -165 -44t-117 -121.5t-42 -174.5q0 -121 71.5 -196.5t178.5 -75.5q94 0 161.5 40t104.5 112l227 -111q-78 -141 -213 -215t-303 -74h-10l-39 -63 q14 2 37 2q72 0 117 -50.5t45 -125.5q0 -98 -66.5 -156.5t-169.5 -58.5q-70 0 -127 38.5t-71 96.5l139 55q4 -25 23.5 -41t46.5 -16q31 0 52 19.5t21 51.5q0 29 -17.5 46.5t-43.5 17.5q-29 0 -58 -29l-112 58l96 172q-164 41 -262 171t-98 304z" />
<glyph unicode="&#xe8;" horiz-adv-x="1204" d="M27 463q0 164 77.5 304t218 225t316.5 85q141 0 245.5 -61.5t160 -161.5t55.5 -217q0 -92 -27 -178h-784l-2 -23q2 -109 74.5 -170t175.5 -61q113 0 182 38t117 117l202 -106q-90 -143 -213 -215t-311 -72q-145 0 -256 66.5t-171 180.5t-60 249zM322 649h530v8 q0 82 -65.5 141.5t-172.5 59.5q-104 0 -183 -61.5t-109 -147.5zM435 1524h303l37 -279h-209z" />
<glyph unicode="&#xe9;" horiz-adv-x="1204" d="M27 463q0 164 77.5 304t218 225t316.5 85q141 0 245.5 -61.5t160 -161.5t55.5 -217q0 -92 -27 -178h-784l-2 -23q2 -109 74.5 -170t175.5 -61q113 0 182 38t117 117l202 -106q-90 -143 -213 -215t-311 -72q-145 0 -256 66.5t-171 180.5t-60 249zM322 649h530v8 q0 82 -65.5 141.5t-172.5 59.5q-104 0 -183 -61.5t-109 -147.5zM559 1245l135 279h314l-232 -279h-217z" />
<glyph unicode="&#xea;" horiz-adv-x="1204" d="M27 463q0 164 77.5 304t218 225t316.5 85q141 0 245.5 -61.5t160 -161.5t55.5 -217q0 -92 -27 -178h-784l-2 -23q2 -109 74.5 -170t175.5 -61q113 0 182 38t117 117l202 -106q-90 -143 -213 -215t-311 -72q-145 0 -256 66.5t-171 180.5t-60 249zM311 1233l4 16l270 258 h244l186 -258l-4 -16h-245l-66 119h-25l-98 -119h-266zM322 649h530v8q0 82 -65.5 141.5t-172.5 59.5q-104 0 -183 -61.5t-109 -147.5z" />
<glyph unicode="&#xeb;" horiz-adv-x="1204" d="M27 463q0 164 77.5 304t218 225t316.5 85q141 0 245.5 -61.5t160 -161.5t55.5 -217q0 -92 -27 -178h-784l-2 -23q2 -109 74.5 -170t175.5 -61q113 0 182 38t117 117l202 -106q-90 -143 -213 -215t-311 -72q-145 0 -256 66.5t-171 180.5t-60 249zM322 649h530v8 q0 82 -65.5 141.5t-172.5 59.5q-104 0 -183 -61.5t-109 -147.5zM352 1391q0 61 43 103t102 42q63 0 105.5 -42t42.5 -103t-42 -104.5t-106 -43.5q-59 0 -102 43t-43 105zM741 1391q0 61 43 103t104 42t104.5 -42t43.5 -103t-43 -104.5t-105 -43.5q-59 0 -103 43t-44 105z " />
<glyph unicode="&#xec;" horiz-adv-x="565" d="M14 0l183 1044h268l-182 -1044h-269zM131 1524h303l37 -279h-209z" />
<glyph unicode="&#xed;" horiz-adv-x="565" d="M14 0l183 1044h268l-182 -1044h-269zM256 1245l135 279h314l-232 -279h-217z" />
<glyph unicode="&#xee;" horiz-adv-x="565" d="M8 1233l4 16l270 258h244l186 -258l-4 -16h-245l-66 119h-25l-98 -119h-266zM14 0l183 1044h268l-182 -1044h-269z" />
<glyph unicode="&#xef;" horiz-adv-x="565" d="M14 0l183 1044h268l-182 -1044h-269zM80 1391q0 57 42 99t99 42q59 0 100 -41t41 -100t-40.5 -100.5t-100.5 -41.5q-57 0 -99 42t-42 100zM424 1391q0 57 42 99t99 42q59 0 100.5 -41t41.5 -100t-41 -100.5t-101 -41.5q-57 0 -99 42t-42 100z" />
<glyph unicode="&#xf0;" horiz-adv-x="1204" d="M29 424q0 166 69.5 298t196.5 208t297 76q72 0 133 -21.5t98 -56.5l15 12q-18 53 -50 91t-98 99l-252 -104l-63 154l145 59q-82 37 -172 53l74 203q203 -43 352 -152l238 99l61 -152l-164 -69q90 -109 141.5 -257.5t51.5 -318.5q0 -184 -68.5 -338.5t-208 -247 t-340.5 -92.5q-129 0 -233.5 61.5t-163.5 166t-59 229.5zM291 449q0 -104 66.5 -173t166.5 -69q84 0 149.5 44t102.5 116.5t37 156.5q0 104 -61.5 173t-159.5 69q-88 0 -156.5 -45t-106.5 -118t-38 -154z" />
<glyph unicode="&#xf1;" d="M0 0l184 1044h250l-22 -131h16q53 78 138 121t196 43q160 0 246 -90t86 -229q0 -51 -11 -127l-112 -631h-269l107 600q8 31 8 78q0 63 -45 106t-119 43q-119 0 -192.5 -78.5t-98.5 -216.5l-94 -532h-268zM373 1272q16 127 84.5 193.5t175.5 66.5q43 0 77.5 -14.5 t79.5 -38.5q25 -14 50.5 -24.5t44.5 -10.5q53 0 65 59h189q-16 -127 -85 -193.5t-176 -66.5q-43 0 -77.5 13.5t-77.5 37.5q-63 37 -96 37q-51 0 -66 -59h-188z" />
<glyph unicode="&#xf2;" horiz-adv-x="1245" d="M29 455q0 174 77.5 316t220 224t326.5 82q145 0 258 -64.5t174.5 -175t61.5 -247.5q0 -174 -78 -316.5t-220 -224.5t-327 -82q-145 0 -257.5 64.5t-174 175t-61.5 248.5zM299 483q0 -117 68.5 -192.5t185.5 -75.5q88 0 163 45t119 125t44 176q0 117 -70 191.5t-186 74.5 q-88 0 -162 -45t-118 -123.5t-44 -175.5zM459 1524h303l37 -279h-209z" />
<glyph unicode="&#xf3;" horiz-adv-x="1245" d="M29 455q0 174 77.5 316t220 224t326.5 82q145 0 258 -64.5t174.5 -175t61.5 -247.5q0 -174 -78 -316.5t-220 -224.5t-327 -82q-145 0 -257.5 64.5t-174 175t-61.5 248.5zM299 483q0 -117 68.5 -192.5t185.5 -75.5q88 0 163 45t119 125t44 176q0 117 -70 191.5t-186 74.5 q-88 0 -162 -45t-118 -123.5t-44 -175.5zM584 1245l135 279h314l-232 -279h-217z" />
<glyph unicode="&#xf4;" horiz-adv-x="1245" d="M29 455q0 174 77.5 316t220 224t326.5 82q145 0 258 -64.5t174.5 -175t61.5 -247.5q0 -174 -78 -316.5t-220 -224.5t-327 -82q-145 0 -257.5 64.5t-174 175t-61.5 248.5zM299 483q0 -117 68.5 -192.5t185.5 -75.5q88 0 163 45t119 125t44 176q0 117 -70 191.5t-186 74.5 q-88 0 -162 -45t-118 -123.5t-44 -175.5zM336 1233l4 16l270 258h244l186 -258l-4 -16h-245l-66 119h-25l-98 -119h-266z" />
<glyph unicode="&#xf5;" horiz-adv-x="1245" d="M29 455q0 174 77.5 316t220 224t326.5 82q145 0 258 -64.5t174.5 -175t61.5 -247.5q0 -174 -78 -316.5t-220 -224.5t-327 -82q-145 0 -257.5 64.5t-174 175t-61.5 248.5zM299 483q0 -117 68.5 -192.5t185.5 -75.5q88 0 163 45t119 125t44 176q0 117 -70 191.5t-186 74.5 q-88 0 -162 -45t-118 -123.5t-44 -175.5zM336 1272q16 127 84.5 193.5t175.5 66.5q43 0 77.5 -14.5t79.5 -38.5q25 -14 50.5 -24.5t44.5 -10.5q53 0 65 59h189q-16 -127 -85 -193.5t-176 -66.5q-43 0 -77.5 13.5t-77.5 37.5q-63 37 -96 37q-51 0 -66 -59h-188z" />
<glyph unicode="&#xf6;" horiz-adv-x="1245" d="M29 455q0 174 77.5 316t220 224t326.5 82q145 0 258 -64.5t174.5 -175t61.5 -247.5q0 -174 -78 -316.5t-220 -224.5t-327 -82q-145 0 -257.5 64.5t-174 175t-61.5 248.5zM299 483q0 -117 68.5 -192.5t185.5 -75.5q88 0 163 45t119 125t44 176q0 117 -70 191.5t-186 74.5 q-88 0 -162 -45t-118 -123.5t-44 -175.5zM377 1391q0 61 43 103t102 42q63 0 105.5 -42t42.5 -103t-42 -104.5t-106 -43.5q-59 0 -102 43t-43 105zM766 1391q0 61 43 103t104 42t104.5 -42t43.5 -103t-43 -104.5t-105 -43.5q-59 0 -103 43t-44 105z" />
<glyph unicode="&#xf7;" horiz-adv-x="1165" d="M66 444l38 222h936l-41 -222h-933zM313 152q0 70 49.5 118.5t118.5 48.5q70 0 119 -49t49 -118q0 -70 -49 -119t-119 -49q-69 0 -118.5 49t-49.5 119zM455 958q0 70 49 119t119 49t119 -49t49 -119t-49.5 -118.5t-118.5 -48.5q-70 0 -119 49t-49 118z" />
<glyph unicode="&#xf8;" horiz-adv-x="1245" d="M29 455q0 174 77.5 316t220 224t326.5 82q121 0 221 -47l82 107l152 -127l-78 -95q55 -66 86 -148.5t31 -176.5q0 -174 -78 -316.5t-220 -224.5t-327 -82q-104 0 -203 39l-73 -98l-160 119l70 88q-61 66 -94 152.5t-33 187.5zM291 483q0 -88 37 -149l385 493 q-33 16 -90 17q-86 0 -163 -49.5t-123 -132t-46 -179.5zM479 209q35 -12 74 -12q88 0 165 48t123 132t46 184q0 70 -29 131z" />
<glyph unicode="&#xf9;" d="M55 287q0 66 11 125l112 632h268l-106 -600q-8 -33 -8 -77q0 -66 45 -109t119 -43q119 0 192.5 79t97.5 218l95 532h268l-184 -1044h-250l22 131h-16q-53 -80 -138 -122t-196 -42q-160 0 -246 90t-86 230zM465 1524h303l37 -279h-209z" />
<glyph unicode="&#xfa;" d="M55 287q0 66 11 125l112 632h268l-106 -600q-8 -33 -8 -77q0 -66 45 -109t119 -43q119 0 192.5 79t97.5 218l95 532h268l-184 -1044h-250l22 131h-16q-53 -80 -138 -122t-196 -42q-160 0 -246 90t-86 230zM590 1245l135 279h314l-232 -279h-217z" />
<glyph unicode="&#xfb;" d="M55 287q0 66 11 125l112 632h268l-106 -600q-8 -33 -8 -77q0 -66 45 -109t119 -43q119 0 192.5 79t97.5 218l95 532h268l-184 -1044h-250l22 131h-16q-53 -80 -138 -122t-196 -42q-160 0 -246 90t-86 230zM342 1233l4 16l270 258h244l186 -258l-4 -16h-245l-66 119h-25 l-98 -119h-266z" />
<glyph unicode="&#xfc;" d="M55 287q0 66 11 125l112 632h268l-106 -600q-8 -33 -8 -77q0 -66 45 -109t119 -43q119 0 192.5 79t97.5 218l95 532h268l-184 -1044h-250l22 131h-16q-53 -80 -138 -122t-196 -42q-160 0 -246 90t-86 230zM383 1391q0 61 43 103t102 42q63 0 105.5 -42t42.5 -103 t-42 -104.5t-106 -43.5q-59 0 -102 43t-43 105zM772 1391q0 61 43 103t104 42t104.5 -42t43.5 -103t-43 -104.5t-105 -43.5q-59 0 -103 43t-44 105z" />
<glyph unicode="&#xfd;" horiz-adv-x="1185" d="M39 -442l309 501l-260 985h299l158 -649h14l379 649h303l-909 -1486h-293zM573 1245l135 279h314l-232 -279h-217z" />
<glyph unicode="&#xfe;" horiz-adv-x="1259" d="M-61 -442l335 1908h269l-72 -401l-41 -147h16q49 74 132.5 116.5t203.5 42.5q121 0 217.5 -62.5t151.5 -173t55 -245.5q0 -176 -74.5 -319.5t-209 -226.5t-306.5 -83q-109 0 -195.5 47t-117.5 111h-16l-6 -148l-74 -419h-268zM354 469q0 -111 73 -182.5t181 -71.5 q97 0 171.5 46t115.5 128t41 182q0 115 -72.5 185.5t-181.5 70.5q-86 0 -162 -43t-121 -123.5t-45 -191.5z" />
<glyph unicode="&#xff;" horiz-adv-x="1185" d="M39 -442l309 501l-260 985h299l158 -649h14l379 649h303l-909 -1486h-293zM367 1391q0 61 43 103t102 42q63 0 105.5 -42t42.5 -103t-42 -104.5t-106 -43.5q-59 0 -102 43t-43 105zM756 1391q0 61 43 103t104 42t104.5 -42t43.5 -103t-43 -104.5t-105 -43.5 q-59 0 -103 43t-44 105z" />
<glyph unicode="&#x152;" horiz-adv-x="2379" d="M76 649q0 227 110.5 423t308 311.5t445.5 115.5q156 0 275.5 -51t195.5 -143h14l31 161h930l-47 -262h-653l-62 -340h590l-47 -262h-590l-59 -340h653l-45 -262h-930l25 141h-13q-84 -84 -201.5 -129t-261.5 -45q-186 0 -338.5 86t-241.5 242t-89 354zM354 655 q0 -123 58.5 -220t158 -151.5t217.5 -54.5q160 0 287 76t199 206t72 286q0 131 -55.5 231t-154 154.5t-223.5 54.5q-156 0 -283.5 -77t-201.5 -210t-74 -295z" />
<glyph unicode="&#x153;" horiz-adv-x="2050" d="M29 455q0 174 77.5 316t220 224t326.5 82q121 0 220.5 -51t164.5 -139q84 90 197 140t248 50q143 0 248.5 -61.5t161 -162.5t55.5 -216q0 -102 -29 -178h-784l-2 -23q2 -109 74.5 -170t176.5 -61q111 0 181.5 38t117.5 117l201 -106q-90 -143 -213 -215t-307 -72 q-125 0 -225.5 49.5t-163.5 137.5q-82 -88 -196.5 -137.5t-256.5 -49.5q-145 0 -257.5 64.5t-174 175t-61.5 248.5zM299 483q0 -117 68.5 -192.5t185.5 -75.5q88 0 163 45t119 125t44 176q0 117 -70 191.5t-186 74.5q-88 0 -162 -45t-118 -123.5t-44 -175.5zM1165 649h533v8 q0 84 -67.5 142.5t-168.5 58.5q-109 0 -186.5 -61.5t-110.5 -147.5z" />
<glyph unicode="&#x178;" horiz-adv-x="1314" d="M156 1466h319l209 -485h16l369 485h342l-625 -784l-120 -682h-277l121 682zM458 1726q0 61 43 104.5t105 43.5q61 0 103 -43t42 -105q0 -61 -42 -104t-103 -43q-62 0 -105 44t-43 103zM850 1726q0 61 43 104.5t102 43.5q63 0 105 -43t42 -105q0 -61 -43 -104t-104 -43 q-59 0 -102 44t-43 103z" />
<glyph unicode="&#x2c6;" horiz-adv-x="933" d="M197 1192l2 16l270 258h244l186 -258l-2 -16h-248l-63 121h-25l-100 -121h-264z" />
<glyph unicode="&#x2dc;" horiz-adv-x="858" d="M150 1231q16 129 85.5 195.5t176.5 66.5q41 0 74.5 -13.5t82.5 -39.5q61 -35 93 -35q53 0 67 59h189q-16 -129 -86 -195.5t-177 -66.5q-41 0 -74.5 13.5t-82.5 39.5q-61 35 -92 35q-53 0 -68 -59h-188z" />
<glyph unicode="&#x2000;" horiz-adv-x="937" />
<glyph unicode="&#x2001;" horiz-adv-x="1874" />
<glyph unicode="&#x2002;" horiz-adv-x="937" />
<glyph unicode="&#x2003;" horiz-adv-x="1874" />
<glyph unicode="&#x2004;" horiz-adv-x="624" />
<glyph unicode="&#x2005;" horiz-adv-x="468" />
<glyph unicode="&#x2006;" horiz-adv-x="312" />
<glyph unicode="&#x2007;" horiz-adv-x="312" />
<glyph unicode="&#x2008;" horiz-adv-x="234" />
<glyph unicode="&#x2009;" horiz-adv-x="374" />
<glyph unicode="&#x200a;" horiz-adv-x="104" />
<glyph unicode="&#x2010;" horiz-adv-x="923" d="M76 516l41 238h694l-43 -238h-692z" />
<glyph unicode="&#x2011;" horiz-adv-x="923" d="M76 516l41 238h694l-43 -238h-692z" />
<glyph unicode="&#x2012;" horiz-adv-x="923" d="M76 516l41 238h694l-43 -238h-692z" />
<glyph unicode="&#x2013;" horiz-adv-x="1251" d="M76 516l43 238h1020l-41 -238h-1022z" />
<glyph unicode="&#x2014;" horiz-adv-x="1878" d="M76 516l43 238h1648l-41 -238h-1650z" />
<glyph unicode="&#x2018;" horiz-adv-x="550" d="M154 1092q0 70 65 151l213 256l109 -88l-135 -158q45 -20 73.5 -62t28.5 -99q0 -74 -52.5 -125.5t-123.5 -51.5q-74 0 -126 51.5t-52 125.5z" />
<glyph unicode="&#x2019;" horiz-adv-x="550" d="M162 1004l143 155q-49 16 -79.5 60.5t-30.5 101.5q0 74 52 126t126 52t126 -51t52 -127q0 -68 -66 -150l-215 -256z" />
<glyph unicode="&#x201a;" horiz-adv-x="550" d="M-20 -158l135 158q-43 18 -73 61t-30 99q0 74 52.5 126t125.5 52q74 0 126.5 -51t52.5 -127q0 -68 -66 -150l-215 -256z" />
<glyph unicode="&#x201c;" horiz-adv-x="999" d="M154 1092q0 70 65 151l213 256l109 -88l-135 -158q45 -20 73.5 -62t28.5 -99q0 -74 -52.5 -125.5t-123.5 -51.5q-74 0 -126 51.5t-52 125.5zM603 1092q0 70 65 151l213 256l109 -88l-135 -158q45 -20 73.5 -62t28.5 -99q0 -74 -52.5 -125.5t-123.5 -51.5q-74 0 -126 51.5 t-52 125.5z" />
<glyph unicode="&#x201d;" horiz-adv-x="999" d="M170 1004l135 157q-43 18 -72.5 61.5t-29.5 98.5q0 74 52 126t126 52t126 -51t52 -127q0 -68 -65 -150l-215 -256zM618 1004l136 157q-43 18 -73 61.5t-30 98.5q0 74 52.5 126t125.5 52q74 0 126.5 -51t52.5 -127q0 -68 -66 -150l-215 -256z" />
<glyph unicode="&#x201e;" horiz-adv-x="980" d="M-20 -158l135 158q-43 18 -73 61t-30 99q0 74 52.5 126t125.5 52q74 0 126.5 -51t52.5 -127q0 -68 -66 -150l-215 -256zM408 -158l135 158q-43 18 -73 61t-30 99q0 74 52.5 126t125.5 52q74 0 126.5 -51t52.5 -127q0 -68 -66 -150l-215 -256z" />
<glyph unicode="&#x2022;" horiz-adv-x="862" d="M152 664q0 72 35.5 134t98 98t134.5 36t133 -36t97 -98.5t36 -133.5q0 -72 -36 -134.5t-97 -98.5t-133 -36t-134.5 36t-98 98.5t-35.5 134.5z" />
<glyph unicode="&#x2026;" horiz-adv-x="1540" d="M-2 166q0 74 52 125t126 51t126 -51t52 -125t-52 -126t-126 -52t-126 52t-52 126zM492 166q0 74 52 125t126 51t126 -51t52 -125t-52 -126t-126 -52t-126 52t-52 126zM987 166q0 74 52 125t126 51t126 -51t52 -125t-52 -126t-126 -52t-126 52t-52 126z" />
<glyph unicode="&#x202f;" horiz-adv-x="374" />
<glyph unicode="&#x2039;" horiz-adv-x="792" d="M47 555l516 471l137 -152l-370 -333l239 -322l-172 -135z" />
<glyph unicode="&#x203a;" horiz-adv-x="792" d="M25 236l368 333l-237 322l170 135l352 -471l-518 -471z" />
<glyph unicode="&#x205f;" horiz-adv-x="468" />
<glyph unicode="&#x20ac;" horiz-adv-x="1337" d="M0 440l33 193h160q2 59 16 135h-152l33 193h178q98 213 298 343t468 130q188 0 328 -101l-145 -217q-94 63 -222 64q-135 0 -243.5 -58.5t-180.5 -160.5h428l-32 -193h-488q-16 -70 -16 -135h479l-33 -193h-409q43 -106 133 -162.5t203 -56.5q80 0 136 17.5t118 52.5 l100 -219q-166 -104 -381 -105q-225 0 -389 127t-211 346h-209z" />
<glyph unicode="&#x2122;" horiz-adv-x="1026" d="M16 1380v86h371v-86h-135v-376h-94v376h-142zM461 1004v462h127l129 -331h4l129 331h127v-462h-90v241l4 90h-4l-135 -331h-66l-135 331h-4l4 -90v-241h-90z" />
<glyph unicode="&#x25fc;" horiz-adv-x="1044" d="M0 0v1044h1044v-1044h-1044z" />
</font>
</defs>
</svg>
